{"asset":{"version":"2.0","generator":"Blockbench 4.1.3 glTF exporter"},"scenes":[{"nodes":[11],"name":"blockbench_export"}],"scene":0,"nodes":[{"name":"cube","mesh":0},{"name":"cube","mesh":1},{"name":"cube","mesh":2},{"name":"cube","mesh":3},{"name":"cube","mesh":4},{"rotation":[-0.7071067811865474,0,0,0.7071067811865477],"translation":[-8.540177112501205e-18,0,-0.8125],"name":"circle","mesh":5},{"rotation":[-0.7071067811865474,0,0,0.7071067811865477],"translation":[1.1249999999999998,0.12499999999999989,-0.53125],"name":"circle","mesh":6},{"rotation":[-1.9991742878187196e-17,-0.7071067811865456,-0.7071067811865495,6.6603862745362e-17],"translation":[1.1249999999999998,0.12499999999999989,-0.53125],"name":"circle","mesh":7},{"rotation":[-1.9991742878187196e-17,-0.7071067811865456,-0.7071067811865495,6.6603862745362e-17],"translation":[1.1249999999999998,0.12499999999999989,-0.53125],"name":"circle","mesh":8},{"name":"tires","children":[5,6,7,8]},{"translation":[0,0.125,0],"name":"car","children":[0,1,2,3,4,9]},{"children":[10]}],"bufferViews":[{"buffer":0,"byteOffset":0,"byteLength":864,"target":34962,"byteStride":12},{"buffer":0,"byteOffset":864,"byteLength":864,"target":34962,"byteStride":12},{"buffer":0,"byteOffset":1728,"byteLength":576,"target":34962,"byteStride":8},{"buffer":0,"byteOffset":2304,"byteLength":216,"target":34963},{"buffer":0,"byteOffset":2520,"byteLength":288,"target":34962,"byteStride":12},{"buffer":0,"byteOffset":2808,"byteLength":288,"target":34962,"byteStride":12},{"buffer":0,"byteOffset":3096,"byteLength":192,"target":34962,"byteStride":8},{"buffer":0,"byteOffset":3288,"byteLength":72,"target":34963},{"buffer":0,"byteOffset":3360,"byteLength":288,"target":34962,"byteStride":12},{"buffer":0,"byteOffset":3648,"byteLength":288,"target":34962,"byteStride":12},{"buffer":0,"byteOffset":3936,"byteLength":192,"target":34962,"byteStride":8},{"buffer":0,"byteOffset":4128,"byteLength":72,"target":34963},{"buffer":0,"byteOffset":4200,"byteLength":288,"target":34962,"byteStride":12},{"buffer":0,"byteOffset":4488,"byteLength":288,"target":34962,"byteStride":12},{"buffer":0,"byteOffset":4776,"byteLength":192,"target":34962,"byteStride":8},{"buffer":0,"byteOffset":4968,"byteLength":72,"target":34963},{"buffer":0,"byteOffset":5040,"byteLength":288,"target":34962,"byteStride":12},{"buffer":0,"byteOffset":5328,"byteLength":288,"target":34962,"byteStride":12},{"buffer":0,"byteOffset":5616,"byteLength":192,"target":34962,"byteStride":8},{"buffer":0,"byteOffset":5808,"byteLength":72,"target":34963},{"buffer":0,"byteOffset":5880,"byteLength":1008,"target":34962,"byteStride":12},{"buffer":0,"byteOffset":6888,"byteLength":1008,"target":34962,"byteStride":12},{"buffer":0,"byteOffset":7896,"byteLength":672,"target":34962,"byteStride":8},{"buffer":0,"byteOffset":8568,"byteLength":216,"target":34963},{"buffer":0,"byteOffset":8784,"byteLength":1008,"target":34962,"byteStride":12},{"buffer":0,"byteOffset":9792,"byteLength":1008,"target":34962,"byteStride":12},{"buffer":0,"byteOffset":10800,"byteLength":672,"target":34962,"byteStride":8},{"buffer":0,"byteOffset":11472,"byteLength":216,"target":34963},{"buffer":0,"byteOffset":11688,"byteLength":1008,"target":34962,"byteStride":12},{"buffer":0,"byteOffset":12696,"byteLength":1008,"target":34962,"byteStride":12},{"buffer":0,"byteOffset":13704,"byteLength":672,"target":34962,"byteStride":8},{"buffer":0,"byteOffset":14376,"byteLength":216,"target":34963},{"buffer":0,"byteOffset":14592,"byteLength":1008,"target":34962,"byteStride":12},{"buffer":0,"byteOffset":15600,"byteLength":1008,"target":34962,"byteStride":12},{"buffer":0,"byteOffset":16608,"byteLength":672,"target":34962,"byteStride":8},{"buffer":0,"byteOffset":17280,"byteLength":216,"target":34963}],"buffers":[{"byteLength":17496,"uri":"data:application/octet-stream;base64,"}],"accessors":[{"bufferView":0,"componentType":5126,"count":72,"max":[1.5,1.25,0.5],"min":[-0.875,0,-0.5],"type":"VEC3"},{"bufferView":1,"componentType":5126,"count":72,"max":[1,1,1],"min":[-1,-1,-1],"type":"VEC3"},{"bufferView":2,"componentType":5126,"count":72,"max":[0.6486986875534058,1],"min":[0,0.351300984621048],"type":"VEC2"},{"bufferView":3,"componentType":5123,"count":108,"max":[71],"min":[0],"type":"SCALAR"},{"bufferView":4,"componentType":5126,"count":24,"max":[-0.046875,0.40625,-0.4375],"min":[-0.578125,0.15625,-0.65625],"type":"VEC3"},{"bufferView":5,"componentType":5126,"count":24,"max":[0.9701424837112427,1,1],"min":[-0.9701424837112427,-1,-1],"type":"VEC3"},{"bufferView":6,"componentType":5126,"count":24,"max":[0.48828125,0.8125],"min":[0.0859375,0.515625],"type":"VEC2"},{"bufferView":7,"componentType":5123,"count":36,"max":[23],"min":[0],"type":"SCALAR"},{"bufferView":8,"componentType":5126,"count":24,"max":[1.390625,0.40625,-0.4375],"min":[0.859375,0.15625,-0.65625],"type":"VEC3"},{"bufferView":9,"componentType":5126,"count":24,"max":[0.9701424837112427,1,1],"min":[-0.9701424837112427,-1,-1],"type":"VEC3"},{"bufferView":10,"componentType":5126,"count":24,"max":[0.4921875,0.875],"min":[0.0859375,0.515625],"type":"VEC2"},{"bufferView":11,"componentType":5123,"count":36,"max":[23],"min":[0],"type":"SCALAR"},{"bufferView":12,"componentType":5126,"count":24,"max":[-0.046875,0.40625,0.65625],"min":[-0.578125,0.15625,0.4375],"type":"VEC3"},{"bufferView":13,"componentType":5126,"count":24,"max":[0.9701424837112427,1,1],"min":[-0.9701424837112427,-1,-1],"type":"VEC3"},{"bufferView":14,"componentType":5126,"count":24,"max":[0.48828125,0.71875],"min":[0.140625,0.5],"type":"VEC2"},{"bufferView":15,"componentType":5123,"count":36,"max":[23],"min":[0],"type":"SCALAR"},{"bufferView":16,"componentType":5126,"count":24,"max":[1.390625,0.40625,0.65625],"min":[0.859375,0.15625,0.4375],"type":"VEC3"},{"bufferView":17,"componentType":5126,"count":24,"max":[0.9701424837112427,1,1],"min":[-0.9701424837112427,-1,-1],"type":"VEC3"},{"bufferView":18,"componentType":5126,"count":24,"max":[0.5,0.84375],"min":[0.1953125,0.5],"type":"VEC2"},{"bufferView":19,"componentType":5123,"count":36,"max":[23],"min":[0],"type":"SCALAR"},{"bufferView":20,"componentType":5126,"count":84,"max":[-0.0625,-0.1875,0.375],"min":[-0.5625,-0.375,-0.125],"type":"VEC3"},{"bufferView":21,"componentType":5126,"count":84,"max":[0.9659258127212524,1,0.9659258127212524],"min":[-0.9659258127212524,0,-0.9659258127212524],"type":"VEC3"},{"bufferView":22,"componentType":5126,"count":84,"max":[0.4921875,0.578125],"min":[0,0.4921875],"type":"VEC2"},{"bufferView":23,"componentType":5123,"count":108,"max":[83],"min":[0],"type":"SCALAR"},{"bufferView":24,"componentType":5126,"count":84,"max":[0.25,0.09375,0.25],"min":[-0.25,-0.09375,-0.25],"type":"VEC3"},{"bufferView":25,"componentType":5126,"count":84,"max":[0.9659258127212524,1,0.9659258127212524],"min":[-0.9659258127212524,0,-0.9659258127212524],"type":"VEC3"},{"bufferView":26,"componentType":5126,"count":84,"max":[0.4921875,0.578125],"min":[0,0.4921875],"type":"VEC2"},{"bufferView":27,"componentType":5123,"count":108,"max":[83],"min":[0],"type":"SCALAR"},{"bufferView":28,"componentType":5126,"count":84,"max":[0.25,1.15625,0.25],"min":[-0.25,0.96875,-0.25],"type":"VEC3"},{"bufferView":29,"componentType":5126,"count":84,"max":[0.9659258127212524,1,0.9659258127212524],"min":[-0.9659258127212524,0,-0.9659258127212524],"type":"VEC3"},{"bufferView":30,"componentType":5126,"count":84,"max":[0.4921875,0.578125],"min":[0,0.4921875],"type":"VEC2"},{"bufferView":31,"componentType":5123,"count":108,"max":[83],"min":[0],"type":"SCALAR"},{"bufferView":32,"componentType":5126,"count":84,"max":[1.6875,1.15625,0.25],"min":[1.1875,0.96875,-0.25],"type":"VEC3"},{"bufferView":33,"componentType":5126,"count":84,"max":[0.9659258127212524,1,0.9659258127212524],"min":[-0.9659258127212524,0,-0.9659258127212524],"type":"VEC3"},{"bufferView":34,"componentType":5126,"count":84,"max":[0.4921875,0.578125],"min":[0,0.4921875],"type":"VEC2"},{"bufferView":35,"componentType":5123,"count":108,"max":[83],"min":[0],"type":"SCALAR"}],"materials":[{"pbrMetallicRoughness":{"metallicFactor":0,"roughnessFactor":1,"baseColorTexture":{"index":0}},"alphaMode":"MASK","alphaCutoff":0.05,"doubleSided":true}],"textures":[{"sampler":0,"source":0,"name":"car.png"}],"samplers":[{"magFilter":9728,"minFilter":9728,"wrapS":33071,"wrapT":33071}],"images":[{"mimeType":"image/png","uri":"data:image/png;base64,"}],"meshes":[{"primitives":[{"mode":4,"attributes":{"POSITION":0,"NORMAL":1,"TEXCOORD_0":2},"indices":3,"material":0}]},{"primitives":[{"mode":4,"attributes":{"POSITION":4,"NORMAL":5,"TEXCOORD_0":6},"indices":7,"material":0}]},{"primitives":[{"mode":4,"attributes":{"POSITION":8,"NORMAL":9,"TEXCOORD_0":10},"indices":11,"material":0}]},{"primitives":[{"mode":4,"attributes":{"POSITION":12,"NORMAL":13,"TEXCOORD_0":14},"indices":15,"material":0}]},{"primitives":[{"mode":4,"attributes":{"POSITION":16,"NORMAL":17,"TEXCOORD_0":18},"indices":19,"material":0}]},{"primitives":[{"mode":4,"attributes":{"POSITION":20,"NORMAL":21,"TEXCOORD_0":22},"indices":23,"material":0}]},{"primitives":[{"mode":4,"attributes":{"POSITION":24,"NORMAL":25,"TEXCOORD_0":26},"indices":27,"material":0}]},{"primitives":[{"mode":4,"attributes":{"POSITION":28,"NORMAL":29,"TEXCOORD_0":30},"indices":31,"material":0}]},{"primitives":[{"mode":4,"attributes":{"POSITION":32,"NORMAL":33,"TEXCOORD_0":34},"indices":35,"material":0}]}]}