# Made in Blockbench 4.1.3
mtllib car.mtl

o cube
v -0.5 0.1875 0.5
v 1.375 1.4578125 0.46875
v 1.375 1.4578125 -0.46875
v 1.375 0.75 0.5
v 1.375 0.75 -0.5
v -0.296875 1.40625 0.46875
v -0.296875 1.40625 -0.46875
v -0.609375 0.875 0.5
v -0.609375 0.875 -0.5
v 1.375 0.1875 0.5
v 1.375 0.1875 -0.5
v -0.5 0.1875 -0.5
v -0.9375 0.1875 -0.4375
v -0.9375 0.1875 0.4375
v -0.890625 0.734375 0.4375
v -0.890625 0.734375 -0.4375
v 1.3125 0.1875 -0.625
v -0.4375 0.1875 -0.625
v -0.5 0.75 -0.625
v 1.375 0.765625 -0.625
v -0.875 0.1875 -0.515625
v -0.859375 0.71875 -0.515625
v 1.375 1.3125 -0.5625
v 1.375 0.75 -0.625
v -0.3125 1.3125 -0.5625
v -0.5 0.75 -0.625
v -0.4375 0.1875 0.625
v 1.3125 0.1875 0.625
v 1.375 0.75 0.625
v -0.5 0.75 0.625
v -0.859375 0.71875 0.515625
v -0.875 0.1875 0.515625
v 1.375 1.3125 0.5625
v -0.3125 1.3125 0.5625
v 1.375 0.75 0.625
v -0.5 0.75 0.625
v 1.5 0.1875 0.45
v 1.5 0.1875 -0.45
v 1.5 0.6988636363636364 -0.45
v 1.5 0.6988636363636364 0.45
v 1.5 0.1875 -0.5625
v 1.5 0.6988636363636364 -0.5625
v 1.5 0.6988636363636364 -0.5625
v 1.5 1.2102272727272727 -0.50625
v 1.5 1.4375 -0.45
v 1.5 1.4375 0.45
v 1.5 1.2102272727272727 0.50625
v 1.5 0.6988636363636364 0.5625
v 1.5 0.6988636363636364 0.5625
v 1.5 0.1875 0.5625
v -0.875 0.3125 0.515625
v -0.4375 0.3125 0.625
v 1.3125 0.28125 0.625
v 1.5 0.2556818181818181 0.5625
v 1.5 0.2556818181818181 0.45
v 1.5 0.2556818181818181 -0.45
v 1.5 0.2556818181818181 -0.5625
v 1.3125 0.28125 -0.625
v -0.4375 0.3125 -0.625
v -0.875 0.3125 -0.515625
v -0.9375 0.3125 -0.4375
v -0.9375 0.3125 0.4375
v -0.9081521502950947 0.1875 -0.5651467202360758
v -0.5175 0.3125 -0.685
v -0.9081521502950947 0.3125 -0.5651467202360758
v -0.5175 0.1875 -0.685
v -0.9931521502950947 0.1875 -0.45702172023607573
v -0.9931521502950947 0.3125 -0.45702172023607573
v -0.9931521502950947 0.1875 0.45702172023607573
v -0.9931521502950947 0.3125 0.45702172023607573
v -0.9081521502950947 0.1875 0.5651467202360758
v -0.9081521502950947 0.3125 0.5651467202360758
v -0.5175 0.1875 0.685
v -0.5175 0.3125 0.685
v 1.4029508497187473 0.1875 -0.6496516994374948
v 1.5452254248593738 0.2556818181818181 -0.5904508497187474
v 1.4029508497187473 0.28125 -0.6496516994374948
v 1.5452254248593738 0.1875 -0.5904508497187474
v 1.5625 0.2556818181818181 -0.45
v 1.5625 0.1875 -0.45
v 1.5625 0.2556818181818181 0.45
v 1.5625 0.1875 0.45
v 1.5452254248593738 0.2556818181818181 0.5904508497187474
v 1.5452254248593738 0.1875 0.5904508497187474
v 1.4029508497187473 0.28125 0.6496516994374948
v 1.4029508497187473 0.1875 0.6496516994374948
vt 0.1171875 0.828125
vt 0.1171875 0.6171875
vt 0 0.6171875
vt 0 0.828125
vt 0.0234375 0.8518749999999999
vt 0.0234375 0.9768749999999999
vt 0.2578125 0.9768749999999999
vt 0.2578125 0.8518749999999999
vt 0.3203125 0.9296875
vt 0.3203125 1
vt 0.53125 1
vt 0.5546875 0.9296875
vt 0.34375 0.9296875
vt 0.5546875 0.9296875
vt 0.5546875 0.859375
vt 0.3203125 0.859375
vt 0.271875 0.828125
vt 0.384375 0.828125
vt 0.384375 0.7357953125000001
vt 0.271875 0.7357953125000001
vt 0.3984375 0.6796875
vt 0.3984375 0.6875
vt 0.5078125 0.6875
vt 0.5078125 0.6796875
vt 0.265625 0.609375
vt 0.265625 0.62109375
vt 0.484375 0.625
vt 0.484375 0.609375
vt 0.3984375 0.6875
vt 0.3984375 0.703125
vt 0.515625 0.703125
vt 0.515625 0.6875
vt 0.0078125 0.546875
vt 0.0078125 0.5625
vt 0.2265625 0.55859375
vt 0.2265625 0.546875
vt 0.3125 0.9690624999999999
vt 0.3125 0.8596874999999999
vt 0.2578125 0.8518749999999999
vt 0.2578125 0.9768749999999999
vt 0.234375 0.5078125
vt 0.234375 0.5234375
vt 0.2890625 0.5234375
vt 0.2890625 0.5078125
vt 0.515625 0.78125
vt 0.40625 0.78125
vt 0.3984375 0.828125
vt 0.5234375 0.828125
vt 0.2890625 0.5078125
vt 0.2890625 0.5234375
vt 0.34375 0.5234375
vt 0.34375 0.5078125
vt 0.25 0.8362499999999999
vt 0.03125 0.8362499999999999
vt 0.0234375 0.8518749999999999
vt 0.2578125 0.8518749999999999
vt 0.640625 0.7578125
vt 0.40625 0.7578125
vt 0.3984375 0.78125
vt 0.640625 0.77020078125
vt 0.4921875 0.609375
vt 0.4921875 0.6171875
vt 0.5078125 0.6171875
vt 0.5078125 0.609375
vt 0.28125 0.4921875
vt 0.28125 0.5078125
vt 0.296875 0.5078125
vt 0.296875 0.4921875
vt 0.1953125 0.546875
vt 0.23112452620214508 0.5136833659589874
vt 0.23374491836327765 0.5014548692070355
vt 0.1953125 0.5294057189257829
vt 0.3046875 0.8499218749999999
vt 0.25 0.8362499999999999
vt 0.2578125 0.8518749999999999
vt 0.3125 0.8596874999999999
vt 0.53125 0.828125
vt 0.3203125 0.828125
vt 0.322265625 0.859375
vt 0.53125 0.8509375
vt 0.2578125 0.7357953125000001
vt 0.26484375 0.799715625
vt 0.271875 0.828125
vt 0.271875 0.7357953125000001
vt 0.6328125 0.71875
vt 0.3984375 0.71875
vt 0.3984375 0.734375
vt 0.640625 0.734375
vt 0.3446441345612247 0.588483482190552
vt 0.33124123438323677 0.5246790683926563
vt 0.267578125 0.52490234375
vt 0.29419674901869086 0.5956710219988357
vt 0.03125 0.9924999999999999
vt 0.25 0.9924999999999999
vt 0.2578125 0.9768749999999999
vt 0.0234375 0.9768749999999999
vt 0.46875 0.5
vt 0.46875 0.5078125
vt 0.484375 0.5078125
vt 0.484375 0.5
vt 0.6328125 0.703125
vt 0.3984375 0.703125
vt 0.3984375 0.71875
vt 0.640625 0.71875
vt 0.296875 0.4921875
vt 0.296875 0.5078125
vt 0.3125 0.5078125
vt 0.3125 0.4921875
vt 0.25 0.9924999999999999
vt 0.3046875 0.9788281249999999
vt 0.3125 0.9690624999999999
vt 0.2578125 0.9768749999999999
vt 0.509765625 0.5234375
vt 0.4609375 0.5234375
vt 0.4728125 0.546875
vt 0.52 0.5312265625
vt 0.39140625 0.799715625
vt 0.3984375 0.7357953125000001
vt 0.384375 0.7357953125000001
vt 0.384375 0.828125
vt 0.5703125 0.578125
vt 0.359375 0.578125
vt 0.359375 0.60166171875
vt 0.568359375 0.609375
vt 0.28125 0.5234375
vt 0.28125 0.5859375
vt 0.328125 0.6015625
vt 0.359375 0.5234375
vt 0.640625 0.734375
vt 0.40625 0.734375
vt 0.3984375 0.7578125
vt 0.640625 0.74676328125
vt 0.234375 0.5234375
vt 0.23828125 0.609375
vt 0.35546875 0.609375
vt 0.359375 0.5234375
vt 0.19296875 0.53125
vt 0.08046875 0.53125
vt 0.078125 0.546875
vt 0.1953125 0.546875
vt 0.0078125 0.858125
vt 0.0078125 0.970625
vt 0.0234375 0.9768749999999999
vt 0.0234375 0.8518749999999999
vt 0.3125 0.4921875
vt 0.3125 0.5078125
vt 0.328125 0.50461640625
vt 0.328125 0.4921875
vt 0.146875 0.5
vt 0.1328125 0.5
vt 0.125 0.515625
vt 0.140625 0.515625
vt 0.0078125 0.8440624999999999
vt 0.0078125 0.858125
vt 0.0234375 0.8518749999999999
vt 0.03125 0.8362499999999999
vt 0.16586856257451854 0.515625
vt 0.1015625 0.515625
vt 0.10706204878038304 0.53125
vt 0.17780701153656558 0.5312126484398745
vt 0.4393827363419895 0.5097277795401567
vt 0.4140625 0.4950521809962829
vt 0.4140625 0.5164298955677205
vt 0.43363487144280455 0.5234375
vt 0.1625 0.5
vt 0.1484375 0.5
vt 0.1546875 0.515625
vt 0.1703125 0.515625
vt 0.4921875 0.6640625
vt 0.4921875 0.67649140625
vt 0.5078125 0.6796875
vt 0.5078125 0.6640625
vt 0.0078125 0.970625
vt 0.0078125 0.9846874999999999
vt 0.03125 0.9924999999999999
vt 0.0234375 0.9768749999999999
vt 0.2484375 0.4921875
vt 0.234375 0.4921875
vt 0.240625 0.5078125
vt 0.25625 0.5078125
vt 0.078125 0.45500498465582384
vt 0.078125 0.5193113449117142
vt 0.09585820292204296 0.53125
vt 0.09589564374587267 0.46050487587082145
vt 0.2796875 0.4921875
vt 0.265625 0.4921875
vt 0.2578125 0.5078125
vt 0.2734375 0.5078125
vt 0.4453125 0.49226948315754326
vt 0.4453125 0.5215357176867838
vt 0.4612014149778938 0.5234375
vt 0.4624744172159658 0.5029894068786614
vt 0.0546875 0.546875
vt 0.0546875 0.4921875
vt 0 0.4921875
vt 0.007579687500000001 0.546875
vt 0.4921875 0.6796875
vt 0.484375 0.625
vt 0.265625 0.62109375
vt 0.2578125 0.6796875
vt 0.2578125 0.671875
vt 0.2578125 0.6127631700663028
vt 0.234375 0.6126920983294839
vt 0.2413268454841328 0.6676045816948363
vt 0.3984375 0.7357953125000001
vt 0.3984375 0.68039765625
vt 0.384375 0.68039765625
vt 0.384375 0.7357953125000001
vt 0.384375 0.7357953125000001
vt 0.384375 0.68039765625
vt 0.271875 0.68039765625
vt 0.271875 0.7357953125000001
vt 0.271875 0.7357953125000001
vt 0.271875 0.68039765625
vt 0.2578125 0.68039765625
vt 0.2578125 0.7357953125000001
vt 0.5158772975799795 0.5601548217728273
vt 0.4609375 0.5530471526848602
vt 0.4609375 0.5779577247323151
vt 0.5199979193421993 0.578125
vt 0.234375 0.6171875
vt 0.2265625 0.55859375
vt 0.0078125 0.5625
vt 0 0.6171875
vt 0.44722890625 0.578125
vt 0.45480859375 0.5234375
vt 0.3984375 0.5234375
vt 0.3984375 0.578059375
vt 0.359375 0.5234375
vt 0.359375 0.46875
vt 0.34375 0.46875
vt 0.34375 0.5234375
vt 0.2265625 0.671875
vt 0.2265625 0.6171875
vt 0.1171875 0.6171875
vt 0.1171875 0.671875
vt 0.4140625 0.5234375
vt 0.4140625 0.46875
vt 0.3984375 0.46875
vt 0.3984375 0.5234375
vt 0.25390390625000003 0.769653125
vt 0.18535109374999997 0.678249375
vt 0.18125 0.684375
vt 0.24687500000000004 0.771875
vt 0.31945625 0.97150234375
vt 0.31945625 0.85724765625
vt 0.3125 0.8596874999999999
vt 0.3125 0.9690624999999999
vt 0.34375 0.5078125
vt 0.34375 0.4921875
vt 0.328125 0.4921875
vt 0.328125 0.5078125
vt 0.16874171875 0.673811875
vt 0.12068749999999999 0.691125
vt 0.1171875 0.703125
vt 0.169140625 0.68125
vt 0.26 1
vt 0.30883125 0.98501796875
vt 0.3046875 0.9788281249999999
vt 0.25 0.9924999999999999
vt 0.22343750000000007 0.828125
vt 0.25351328125000006 0.786840625
vt 0.24648437500000003 0.784375
vt 0.21093750000000006 0.828125
vt 0.4921875 0.6484375
vt 0.4921875 0.6640625
vt 0.5078125 0.6640625
vt 0.5078125 0.6484375
vt 0.30883125 0.8437320312500001
vt 0.26 0.82875
vt 0.25 0.8362499999999999
vt 0.3046875 0.8499218749999999
vt 0.25351328125000006 0.786840625
vt 0.25390390625000003 0.769653125
vt 0.24687500000000004 0.771875
vt 0.24648437500000003 0.784375
vt 0.31945625 0.85724765625
vt 0.30883125 0.8437320312500001
vt 0.3046875 0.8499218749999999
vt 0.3125 0.8596874999999999
vt 0.18535109374999997 0.678249375
vt 0.16874171875 0.673811875
vt 0.169140625 0.68125
vt 0.18125 0.684375
vt 0.30883125 0.98501796875
vt 0.31945625 0.97150234375
vt 0.3125 0.9690624999999999
vt 0.3046875 0.9788281249999999
vt 0.1796875 0.40119375
vt 0.1796875 0.5136937500000001
vt 0.1875 0.5136937500000001
vt 0.1875 0.40119375
vt 0 0.858125
vt 0 0.970625
vt 0.0078125 0.970625
vt 0.0078125 0.858125
vt 0.1796875 0.5136937500000001
vt 0.181846875 0.53125
vt 0.1875 0.5277562499999999
vt 0.1875 0.5136937500000001
vt 0.002159374999999991 0.84056875
vt 0 0.858125
vt 0.0078125 0.858125
vt 0.0078125 0.8440624999999999
vt 0.181846875 0.38363749999999996
vt 0.1796875 0.40119375
vt 0.1875 0.40119375
vt 0.1875 0.3871312499999999
vt 0 0.970625
vt 0.002159374999999991 0.98818125
vt 0.0078125 0.9846874999999999
vt 0.0078125 0.970625
vt 0.5078125 0.6484375
vt 0.5078125 0.6328125
vt 0.4921875 0.6328125
vt 0.4921875 0.6484375
vt 0.46875 0.511196875
vt 0.4839625 0.5234375
vt 0.49568125 0.5234375
vt 0.47512265625000005 0.509378125
vt 0.01994375000000001 0.83316875
vt 0.002159374999999991 0.84056875
vt 0.0078125 0.8440624999999999
vt 0.03125 0.8362499999999999
vt 0.11280000000000001 0.5123695312500001
vt 0.12403828125000002 0.5
vt 0.11739218750000002 0.5
vt 0.1015625 0.515625
vt 0.4921875 0.6171875
vt 0.4921875 0.6328125
vt 0.5078125 0.6328125
vt 0.5078125 0.6171875
vt 0.002159374999999991 0.98818125
vt 0.01994375000000001 0.99558125
vt 0.03125 0.9924999999999999
vt 0.0078125 0.9846874999999999
vn -0.03082646430226199 0.9995247516187987 0
vn 0 -1 0
vn 0 0.11043152607484655 0.9938837346736189
vn 0 0.11043152607484655 -0.9938837346736189
vn 1 0 0
vn 1 0 0
vn 0 0 1
vn -1 0 0
vn 0 0 -1
vn 0 -1 0
vn -0.29330915100264304 0 0.9560176472942896
vn -0.44721359549995804 0.8944271909999161 0
vn -0.29330915100264304 0 -0.9560176472942896
vn 0 -1 0
vn -0.005871011348369832 0.7045213618043799 -0.7096584967342034
vn 0.9925210174334176 0 -0.12207387088535228
vn -0.7861606252239778 0 -0.6180222256096011
vn -0.16049882132375393 0.9535518208058322 -0.254909892690668
vn 0 -1 0
vn 0 0.7071067811865476 -0.7071067811865476
vn 1 0 0
vn 0 -1 0
vn -0.5695699673674103 0.27588545294358935 -0.7742591743900733
vn 0 -1 0
vn 0.9925210174334176 0 0.12207387088535228
vn 0 1 0
vn -0.7861606252239778 0 0.6180222256096011
vn 0 -1 0
vn -0.28774000050624254 0.5395125009492048 0.7912850013921671
vn 1 0 0
vn 0 0.5421268698220933 0.8402966482242443
vn -0.9282405486083755 0.3287518609654663 0.1740451028640704
vn 0 -0.7071067811865476 -0.7071067811865476
vn -0.8619342151577696 0.5070201265633938 0
vn 0.1603960693763904 0.987052734623943 0
vn 0 -1 0
vn 0.3841717585585576 0 -0.9232616421827703
vn 0.47110840867448117 0.8820753183692412 0
vn 0 -1 0
vn 0.4763278163992128 0.09613955927323566 -0.873995993393051
vn 0.5350855295210213 0.20296347671487003 -0.8200544513732128
vn -0.3786328457205042 -0.9255469562056767 0
vn 0.3841717585585576 0 0.9232616421827703
vn 0 -1 0
vn 0.3786328457205042 0.9255469562056767 0
vn 0.4729387803666428 0.0963393811857976 0.8758125562345234
vn -0.3786328457205042 -0.9255469562056767 0
vn 0.18157792333922615 0.23625713041673596 0.954574264310045
vn -0.24252507335700688 0.009327887436807956 0.9701002934280275
vn 0 0 1
vn 0.3108645865921195 -0.04144861154561594 0.9495500099541107
vn 1 0 0
vn 1 0 0
vn 1 0 0
vn 0.316227766016838 0 -0.9486832980505139
vn 0 0 -1
vn -0.24239017637255533 -0.03462716805322219 -0.9695607054902213
vn -0.7805168733118654 0.030019879742764054 -0.6244134986494924
vn -0.9938837346736189 0.11043152607484653 0
vn -0.7779461672194629 0.08643846302438477 0.6223569337755703
vn 0 1 0
vn 0 -1 0
vn 0.6000000000000005 0 0.7999999999999996
vn 0 1 0
vn 0 -1 0
vn 0 1 0
vn 0.6000000000000005 0 -0.7999999999999996
vn 0 -1 0
vn 0 1 0
vn 0 -1 0
vn 0 1 0
vn 0 -1 0
vn 0 1 0
vn 0 -1 0
vn 0 1 0
vn 0 -1 0
vn 0 1 0
vn 0 -1 0
vn -0.2629514606666113 0 -0.9648090636666384
vn 0.06865608375840751 0.9653123160914052 0.2519096555616829
vn 0 -1 0
vn 0.10522733453754066 0.9797643912864372 -0.17026140382729663
vn -0.2629514606666113 0 0.9648090636666384
vn 0 -1 0
usemtl m_0
f 6/1/1 2/2/1 3/3/1 7/4/1
f 11/5/2 10/6/2 1/7/2 12/8/2
f 35/9/3 33/10/3 34/11/3 36/12/3
f 25/13/4 23/14/4 24/15/4 26/16/4
f 45/17/5 46/18/5 40/19/5 39/20/5
f 80/21/6 79/22/6 81/23/6 82/24/6
f 28/25/7 53/26/7 52/27/7 27/28/7
f 69/29/8 70/30/8 68/31/8 67/32/8
f 18/33/9 59/34/9 58/35/9 17/36/9
f 14/37/10 13/38/10 12/39/10 1/40/10
f 73/41/11 74/42/11 72/43/11 71/44/11
f 16/45/12 15/46/12 8/47/12 9/48/12
f 63/49/13 65/50/13 64/51/13 66/52/13
f 18/53/14 17/54/14 11/55/14 12/56/14
f 20/57/15 19/58/15 9/59/15 5/60/15
f 78/61/16 76/62/16 79/63/16 80/64/16
f 67/65/17 68/66/17 65/67/17 63/68/17
f 19/69/18 22/70/18 16/71/18 9/72/18
f 21/73/19 18/74/19 12/75/19 13/76/19
f 23/77/20 25/78/20 7/79/20 3/80/20
f 43/81/21 44/82/21 45/83/21 39/84/21
f 26/85/22 24/86/22 5/87/22 9/88/22
f 25/89/23 26/90/23 9/91/23 7/92/23
f 28/93/24 27/94/24 1/95/24 10/96/24
f 82/97/25 81/98/25 83/99/25 84/100/25
f 30/101/26 29/102/26 4/103/26 8/104/26
f 71/105/27 72/106/27 70/107/27 69/108/27
f 27/109/28 32/110/28 14/111/28 1/112/28
f 31/113/29 30/114/29 8/115/29 15/116/29
f 47/117/30 48/118/30 40/119/30 46/120/30
f 34/121/31 33/122/31 2/123/31 6/124/31
f 36/125/32 34/126/32 6/127/32 8/128/32
f 35/129/33 36/130/33 8/131/33 4/132/33
f 8/133/34 6/134/34 7/135/34 9/136/34
f 46/137/35 45/138/35 3/139/35 2/140/35
f 38/141/36 37/142/36 10/143/36 11/144/36
f 75/145/37 77/146/37 76/147/37 78/148/37
f 39/149/38 42/150/38 20/151/38 5/152/38
f 41/153/39 38/154/39 11/155/39 17/156/39
f 44/157/40 43/158/40 24/159/40 23/160/40
f 45/161/41 44/162/41 23/163/41 3/164/41
f 43/165/42 39/166/42 5/167/42 24/168/42
f 84/169/43 83/170/43 85/171/43 86/172/43
f 37/173/44 50/174/44 28/175/44 10/176/44
f 49/177/45 40/178/45 4/179/45 29/180/45
f 48/181/46 47/182/46 33/183/46 35/184/46
f 40/185/47 48/186/47 35/187/47 4/188/47
f 47/189/48 46/190/48 2/191/48 33/192/48
f 31/193/49 51/194/49 52/195/49 30/196/49
f 30/197/50 52/198/50 53/199/50 29/200/50
f 29/201/51 53/202/51 54/203/51 49/204/51
f 49/205/52 54/206/52 55/207/52 40/208/52
f 40/209/53 55/210/53 56/211/53 39/212/53
f 39/213/54 56/214/54 57/215/54 42/216/54
f 42/217/55 57/218/55 58/219/55 20/220/55
f 20/221/56 58/222/56 59/223/56 19/224/56
f 19/225/57 59/226/57 60/227/57 22/228/57
f 22/229/58 60/230/58 61/231/58 16/232/58
f 16/233/59 61/234/59 62/235/59 15/236/59
f 15/237/60 62/238/60 51/239/60 31/240/60
f 68/241/61 70/242/61 62/243/61 61/244/61
f 69/245/62 67/246/62 13/247/62 14/248/62
f 74/249/63 73/250/63 27/251/63 52/252/63
f 72/253/64 74/254/64 52/255/64 51/256/64
f 73/257/65 71/258/65 32/259/65 27/260/65
f 64/261/66 65/262/66 60/263/66 59/264/66
f 66/265/67 64/266/67 59/267/67 18/268/67
f 63/269/68 66/270/68 18/271/68 21/272/68
f 65/273/69 68/274/69 61/275/69 60/276/69
f 67/277/70 63/278/70 21/279/70 13/280/70
f 70/281/71 72/282/71 51/283/71 62/284/71
f 71/285/72 69/286/72 14/287/72 32/288/72
f 81/289/73 79/290/73 56/291/73 55/292/73
f 80/293/74 82/294/74 37/295/74 38/296/74
f 79/297/75 76/298/75 57/299/75 56/300/75
f 78/301/76 80/302/76 38/303/76 41/304/76
f 83/305/77 81/306/77 55/307/77 54/308/77
f 82/309/78 84/310/78 50/311/78 37/312/78
f 77/313/79 75/314/79 17/315/79 58/316/79
f 76/317/80 77/318/80 58/319/80 57/320/80
f 75/321/81 78/322/81 41/323/81 17/324/81
f 85/325/82 83/326/82 54/327/82 53/328/82
f 86/329/83 85/330/83 53/331/83 28/332/83
f 84/333/84 86/334/84 28/335/84 50/336/84
o cube
v -0.5625 0.859375 0.57421875
v -0.5625 0.859375 0.51171875
v -0.5625 0.6875 0.57421875
v -0.5625 0.6875 0.51171875
v -0.625 0.859375 0.51171875
v -0.625 0.859375 0.57421875
v -0.625 0.6875 0.51171875
v -0.625 0.6875 0.57421875
vt 0 1
vt 0.0625 1
vt 0.0625 0.8125
vt 0 0.8125
vt 0.0625 1
vt 0.125 1
vt 0.125 0.8125
vt 0.0625 0.8125
vt 0.125 1
vt 0.1875 1
vt 0.1875 0.8125
vt 0.125 0.8125
vt 0 0.8125
vt 0.0625 0.8125
vt 0.0625 0.625
vt 0 0.625
vt 0.25 0.9375
vt 0.1875 0.9375
vt 0.1875 1
vt 0.25 1
vt 0.125 0.8125
vt 0.0625 0.8125
vt 0.0625 0.75
vt 0.125 0.75
vn 0 0 -1
vn 1 0 0
vn 0 0 1
vn -1 0 0
vn 0 1 0
vn 0 -1 0
usemtl m_1
f 90/340/85 93/339/85 91/338/85 88/337/85
f 89/344/86 90/343/86 88/342/86 87/341/86
f 94/348/87 89/347/87 87/346/87 92/345/87
f 93/352/88 94/351/88 92/350/88 91/349/88
f 92/356/89 87/355/89 88/354/89 91/353/89
f 93/360/90 90/359/90 89/358/90 94/357/90
o cube
v -0.5859375 1.234375 0.55078125
v -0.5859375 1.234375 0.53515625
v -0.5859375 0.859375 0.55078125
v -0.5859375 0.859375 0.53515625
v -0.6015625 1.234375 0.53515625
v -0.6015625 1.234375 0.55078125
v -0.6015625 0.859375 0.53515625
v -0.6015625 0.859375 0.55078125
vt 0.1875 0.9375
vt 0.25 0.9375
vt 0.25 0.875
vt 0.1875 0.875
vt 0.125 0.8125
vt 0.1875 0.8125
vt 0.1875 0.75
vt 0.125 0.75
vt 0.1875 0.875
vt 0.25 0.875
vt 0.25 0.8125
vt 0.1875 0.8125
vt 0.1875 0.8125
vt 0.25 0.8125
vt 0.25 0.75
vt 0.1875 0.75
vt 0.3125 0.9375
vt 0.25 0.9375
vt 0.25 1
vt 0.3125 1
vt 0.125 0.75
vt 0.0625 0.75
vt 0.0625 0.6875
vt 0.125 0.6875
vn 0 0 -1
vn 1 0 0
vn 0 0 1
vn -1 0 0
vn 0 1 0
vn 0 -1 0
usemtl m_1
f 98/364/91 101/363/91 99/362/91 96/361/91
f 97/368/92 98/367/92 96/366/92 95/365/92
f 102/372/93 97/371/93 95/370/93 100/369/93
f 101/376/94 102/375/94 100/374/94 99/373/94
f 100/380/95 95/379/95 96/378/95 99/377/95
f 101/384/96 98/383/96 97/382/96 102/381/96