<?xml version="1.0" encoding="UTF-8" standalone="no"?>
<!-- Created with Inkscape (http://www.inkscape.org/) -->

<svg
   version="1.1"
   id="svg200"
   width="932.30444"
   height="948.27374"
   viewBox="0 0 932.30446 948.27376"
   sodipodi:docname="think-cloud-stuff.png"
   inkscape:export-filename="..\Desktop\torbots things\github\Torbots-Animation-Assets\projects\2024\daa\think-cloud-stuff.svg"
   inkscape:export-xdpi="96"
   inkscape:export-ydpi="96"
   xmlns:inkscape="http://www.inkscape.org/namespaces/inkscape"
   xmlns:sodipodi="http://sodipodi.sourceforge.net/DTD/sodipodi-0.dtd"
   xmlns="http://www.w3.org/2000/svg"
   xmlns:svg="http://www.w3.org/2000/svg">
  <defs
     id="defs204" />
  <sodipodi:namedview
     id="namedview202"
     pagecolor="#505050"
     bordercolor="#ffffff"
     borderopacity="1"
     inkscape:showpageshadow="0"
     inkscape:pageopacity="0"
     inkscape:pagecheckerboard="1"
     inkscape:deskcolor="#505050"
     showgrid="false" />
  <g
     inkscape:groupmode="layer"
     inkscape:label="Image"
     id="g206"
     transform="translate(-262.59091,-254.66346)">
    <path
       style="fill:#000000;stroke-width:0.727273"
       d="m 721.1414,1201.945 c -1.74069,-1.2728 -1.73613,-1.3042 4.87916,-33.5949 5.66851,-27.669 13.85454,-70.9526 13.46887,-71.2165 -0.1192,-0.081 -33.59854,-1.8645 -74.39854,-3.9621 -40.8,-2.0976 -75.49091,-3.9395 -77.09091,-4.0931 -1.6,-0.1537 -7.16363,-0.4735 -12.36363,-0.7107 -13.13954,-0.5994 -35.15026,-1.7291 -42.54546,-2.1837 -25.8332,-1.5881 -77.74743,-4.0344 -81.84363,-3.8568 l -5.03117,0.2182 -2.74627,10.5455 c -1.51044,5.8 -4.7322,18.2363 -7.15946,27.6363 -2.42726,9.4 -5.72478,22.1637 -7.32781,28.3637 -1.60304,6.2 -3.54747,13.7221 -4.32097,16.7158 -1.72587,6.6797 -3.37761,8.6642 -6.15718,7.3978 -1.72682,-0.7868 -1.88801,-1.1857 -1.59555,-3.949 0.17892,-1.6905 3.298,-14.3646 6.93128,-28.1646 3.63328,-13.8 11.19087,-42.7637 16.79465,-64.3637 16.73454,-64.504 29.07315,-112.0441 32.08868,-123.63632 13.90829,-53.46553 28.02517,-107.85229 36.81103,-141.81818 5.79413,-22.4 12.16156,-46.94545 14.14984,-54.54545 4.6248,-17.67789 6.93191,-26.55498 12.38041,-47.63636 2.69339,-10.42127 4.92023,-17.60917 5.70625,-18.41894 1.24792,-1.28561 3.09535,-1.25394 57.8469,0.99168 41.83232,1.71574 56.69051,2.10497 57.0675,1.49499 0.86274,-1.39594 3.6522,-27.58642 3.86903,-36.32679 0.18925,-7.62817 0.33346,-8.36316 1.88781,-9.6218 1.42953,-1.15756 2.52211,-1.30437 7.2567,-0.97508 24.06343,1.67365 29.68259,2.66246 31.72844,5.58333 1.46541,2.09216 1.41111,3.8825 -0.32381,10.67755 -1.62728,6.37342 -5.10358,27.17725 -5.10358,30.54225 0,1.70683 0.3708,2.28108 1.63636,2.53421 0.9,0.18002 16.03637,0.85013 33.63636,1.48914 17.6,0.63902 34.78182,1.31904 38.18182,1.51115 3.4,0.19212 15.01818,0.67326 25.81818,1.06921 29.8152,1.09308 35.21127,1.49153 36.40815,2.68841 1.25709,1.25707 1.34458,4.93253 0.22334,9.38517 -0.84378,3.35112 -0.65462,7.1286 1.94458,38.83006 0.57397,7 2.03084,25.32727 3.23746,40.72727 1.20669,15.4 2.35294,29.8 2.5472,32 0.19433,2.2 0.85004,10.05455 1.45724,17.45455 0.6072,7.4 1.75832,19.67272 2.55803,27.27272 4.16684,39.59848 4.88669,46.91862 8.33207,84.72727 1.36102,14.93506 3.78939,48.36776 4.35804,59.99996 0.64705,13.2344 1.67913,29.9712 3.6776,59.6364 1.59695,23.7049 2.50945,36.5437 4.40211,61.9393 0.27331,3.6667 0.29011,7.4903 0.0378,8.4971 -0.73862,2.9429 -4.82997,3.39 -5.88415,0.6429 -0.24734,-0.6445 -1.26633,-10.6829 -2.26451,-22.3074 -0.99811,-11.6246 -2.62109,-29.9622 -3.60654,-40.7504 -0.98546,-10.7881 -1.79171,-19.9944 -1.79171,-20.4585 0,-0.5584 -2.64422,-1.0045 -7.81818,-1.3188 -33.53797,-2.0376 -47.63957,-2.5947 -65.27273,-2.5789 l -16.72727,0.015 -6.06247,24.1598 c -10.37891,41.3611 -17.95324,72.7665 -23.37404,96.9153 -5.7814,25.7552 -6.59966,27.6875 -10.51297,24.826 z m 20.30272,-114.8541 c 1.01397,-6.5148 6.99957,-37.8257 9.4888,-49.6364 2.35055,-11.1523 4.03986,-18.8721 11.22007,-51.27271 1.19673,-5.4 3.33651,-14.72727 4.75506,-20.72727 1.41862,-6 4.7368,-20.07273 7.37374,-31.27273 2.63695,-11.2 6.0515,-25.27273 7.58793,-31.27273 1.53637,-6 3.60378,-14.67272 4.59426,-19.27272 0.99047,-4.6 4.2821,-18.50909 7.31469,-30.90909 5.79207,-23.68335 6.39811,-26.39469 19.66945,-88 4.56706,-21.2 8.82495,-40.79004 9.46196,-43.53344 1.12662,-4.85162 1.33259,-12.59438 0.35113,-13.20092 -0.26785,-0.16554 -8.47483,-0.63442 -18.23774,-1.04196 -9.76291,-0.40753 -21.67804,-0.90532 -26.47804,-1.1062 -4.8,-0.20087 -13.30909,-0.54214 -18.90909,-0.75837 -5.6,-0.21624 -13.61818,-0.5568 -17.81818,-0.7568 -4.2,-0.2 -19.90909,-0.83725 -34.90909,-1.4161 -15,-0.57884 -30.87273,-1.22015 -35.27273,-1.42513 -4.4,-0.20496 -12.41818,-0.54854 -17.81818,-0.7635 -5.4,-0.21495 -17.01818,-0.69796 -25.81818,-1.07333 -8.8,-0.37538 -21.89091,-0.87072 -29.09091,-1.10075 -7.2,-0.23004 -14.4,-0.55828 -16,-0.72943 -5.37246,-0.57469 -36.72727,-1.29526 -36.72727,-0.84404 0,0.2454 -1.94352,7.89862 -4.31893,17.00716 -2.3754,9.10855 -5.79076,22.28826 -7.58966,29.28826 -1.79891,7 -7.22752,27.94546 -12.06359,46.54546 -13.95801,53.68385 -20.71101,79.67949 -26.44977,101.81818 -2.22928,8.6 -6.98856,26.92727 -10.57618,40.72727 -3.58763,13.8 -9.49331,36.54545 -13.12374,50.54545 -3.63042,14 -9.8294,37.89094 -13.77549,53.09094 -10.14732,39.0866 -9.89915,38.0822 -9.50681,38.4746 0.19592,0.1959 16.21927,1.1964 35.60746,2.2233 19.3882,1.027 44.08762,2.3501 54.88762,2.9403 10.8,0.5903 32.23636,1.727 47.63636,2.5261 15.4,0.799 30.78182,1.6256 34.18182,1.8366 3.4,0.2111 28.43636,1.5269 55.63636,2.924 27.2,1.3971 50.6,2.6464 52,2.7763 1.4,0.1298 4.72575,0.2911 7.39062,0.3583 l 4.84516,0.1223 z m -95.98959,-62.3571 c -2.4,-0.3376 -6.24546,-0.9681 -8.54546,-1.4011 -2.3,-0.433 -5.9,-1.0871 -8,-1.4536 -2.1,-0.3665 -7.58182,-1.5537 -12.18182,-2.6383 -9.1504,-2.1574 -10.82404,-2.5275 -18.90909,-4.1816 -8.07691,-1.6524 -13.83655,-2.5458 -24.36363,-3.7794 -25.21357,-2.9544 -34.44527,-6.0162 -42.36691,-14.05161 -8.59127,-8.71462 -11.21905,-16.28393 -15.57531,-44.86458 -1.22501,-8.03709 -1.21607,-39.02451 0.0135,-46.90909 4.42884,-28.39876 10.42836,-45.82306 18.65595,-54.18196 6.88234,-6.99222 16.09075,-9.82589 31.86573,-9.80589 5.27384,0.007 14.00699,-0.33615 19.40699,-0.76197 5.4,-0.42582 16.03637,-1.16763 23.63637,-1.64858 l 13.81818,-0.87433 0.17793,-3.27272 c 0.7292,-13.41215 6.93709,-31.36546 15.08189,-43.61695 4.49724,-6.7648 13.04259,-14.69774 19.08799,-17.72007 5.50811,-2.7536 8.12591,-3.64858 14.15867,-4.84051 l 4.14285,-0.81847 1.18168,-4.1384 c 4.02865,-14.10873 16.76628,-25.08058 33.14191,-28.54749 5.92398,-1.25418 17.48453,-0.55528 22.81682,1.37942 12.56887,4.56036 21.87069,14.88298 26.6504,29.57519 2.29462,7.05339 2.32989,18.21324 0.0804,25.45455 -3.81047,12.26604 -13.48509,21.62458 -25.48836,24.65556 -16.11743,4.06989 -39.28532,-2.62472 -50.35572,-14.55091 -5.4719,-5.89491 -7.40866,-9.83032 -7.59898,-15.44094 -0.19818,-5.8424 -0.82746,-6.13702 -8.0063,-3.74807 -10.25657,3.41316 -19.57018,13.2832 -25.40056,26.91803 -1.10813,2.59149 -2.29791,5.36633 -2.64396,6.16633 -1.27157,2.93964 -3.46291,12.50094 -3.95872,17.27273 l -0.51008,4.90909 10.44836,0.007 c 58.09842,0.0385 85.21345,4.0824 99.48756,14.83651 8.93571,6.73222 13.16145,15.73971 13.11724,27.96036 -0.0327,9.03578 -1.2816,15.83302 -4.8968,26.65069 -6.08684,18.21375 -9.23513,24.19069 -33.71165,64 -24.34166,39.58998 -30.47879,46.78968 -44.42805,52.11958 -3.09562,1.1829 -5.97841,1.5175 -14.7563,1.7127 -6,0.1334 -12.87273,-0.034 -15.27273,-0.3712 z m 28.2027,-14.3966 c 8.88145,-4.2084 14.18858,-10.72472 30.33494,-37.24632 4.50512,-7.4 9.83467,-16.07273 11.84342,-19.27273 2.00875,-3.2 4.22106,-6.8 4.91624,-8 0.69519,-1.2 3.47565,-5.94545 6.1788,-10.54545 6.59269,-11.21884 10.74433,-20.15513 14.30455,-30.78982 7.17054,-21.41934 6.72589,-32.26203 -1.644,-40.09112 -10.89615,-10.19208 -32.30147,-13.47317 -87.95484,-13.4819 -30.45569,-0.007 -36.79314,0.22866 -62.18181,2.29055 -5.6,0.45476 -15.74546,0.90713 -22.54546,1.00524 -9.13432,0.13185 -13.37896,0.49716 -16.25088,1.39869 -10.6193,3.3336 -15.71304,14.03032 -21.31412,44.75927 -1.98575,10.89425 -2.18881,13.4408 -2.20372,27.63636 -0.0125,11.92306 0.33771,18.14066 1.47486,26.18182 3.12949,22.12982 5.60084,29.05425 12.53422,35.11942 5.61098,4.90836 10.39902,6.31418 30.12328,8.84458 14.21782,1.824 33.41369,5.23721 43.27273,7.69421 8.07544,2.0125 27.26097,5.7676 33.45454,6.5479 2.6,0.3276 8.41849,0.4825 12.92998,0.3444 7.28083,-0.2229 8.71121,-0.4921 12.72727,-2.3951 z m -39.23949,-21.69112 c -2.65145,-1.30764 -5.76271,-5.45782 -6.79817,-9.06822 -2.24635,-7.83258 0.22813,-20.82247 6.34243,-33.29505 6.19854,-12.64437 13.20093,-19.0248 21.04837,-19.17891 4.56451,-0.0897 7.53117,1.99556 10.08052,7.08545 2.07393,4.14066 2.17923,4.78764 2.12947,13.08335 -0.0564,9.39389 -0.95118,13.84458 -4.7853,23.80094 -2.74412,7.12589 -7.57793,13.80771 -10.88492,15.04626 -1.35259,0.50662 -3.80419,1.54596 -5.448,2.30967 -3.60528,1.67505 -8.54145,1.76647 -11.6844,0.21651 z m 9.80392,-6.71236 c 2.09122,-0.73644 4.64814,-2.12735 5.68205,-3.09091 4.2661,-3.97579 9.75221,-18.40357 10.76,-28.29738 0.85954,-8.4384 -1.5729,-16.04524 -5.30798,-16.59942 -2.65938,-0.39455 -7.59237,3.10822 -10.75597,7.63752 -10.07584,14.42553 -14.0894,33.76597 -8.2243,39.63106 2.42872,2.42873 2.87532,2.46967 7.8462,0.71913 z m -82.4035,-4.27797 c -2.73841,-0.69854 -5.33,-3.12109 -7.02848,-6.56996 -1.54673,-3.14073 -1.6933,-4.3608 -1.63756,-13.63127 0.0476,-7.91084 0.39784,-11.40742 1.57042,-15.67666 3.91752,-14.26342 10.52078,-22.50516 18.03111,-22.50516 2.96906,0 3.75694,0.33796 5.77393,2.47658 3.27386,3.47127 4.4061,8.03746 4.25501,17.15978 -0.22118,13.35426 -5.27725,28.84247 -10.78754,33.04538 -1.39729,1.06575 -2.54052,2.37193 -2.54052,2.90255 0,2.00218 -4.4153,3.62043 -7.63637,2.79876 z m 7.17763,-11.65578 c 4.49971,-8.94807 6.40661,-16.26749 6.77371,-26 0.2811,-7.45273 0.1361,-9.09273 -0.9929,-11.22938 -0.72714,-1.37622 -1.70039,-2.62051 -2.16278,-2.76509 -1.4973,-0.46829 -5.73168,3.97069 -7.78205,8.15804 -5.53359,11.30109 -7.12751,30.74516 -2.90298,35.41323 2.46004,2.71833 4.39346,1.73978 7.067,-3.5768 z M 732.94878,803.43576 c 7.1128,-2.52458 11.15883,-6.75389 14.11702,-14.75629 4.72109,-12.77142 -1.78342,-30.87724 -13.57506,-37.78764 -14.42553,-8.45389 -34.82962,-2.68603 -42.95915,12.14371 -2.03094,3.70487 -2.12888,4.30873 -2.24917,13.86713 -0.12531,9.95847 -0.11816,10.00502 2.03581,13.25694 2.91631,4.40284 5.76501,6.68233 12.15037,9.72277 10.17771,4.84618 22.71875,6.30814 30.48018,3.55338 z m 116.88225,245.47334 c -0.22044,-1.9 -1.23287,-11.6364 -2.24982,-21.6364 -1.01694,-10 -2.14298,-20.9636 -2.50225,-24.3636 -0.98895,-9.35917 -3.42619,-39.75371 -4.69455,-58.54549 -2.25353,-33.38895 -2.73884,-41.50662 -4.76058,-79.63636 -0.41353,-7.8 -1.23498,-20.07273 -1.82531,-27.27273 -0.95876,-11.69258 -4.80487,-60.28996 -5.81338,-73.45454 -0.21455,-2.8 -0.70524,-8.85455 -1.09047,-13.45455 -0.38524,-4.6 -0.73542,-8.85454 -0.77819,-9.45454 -0.0968,-1.35731 -1.80989,6.16392 -9.27643,40.72727 -3.24037,15 -6.72917,31.03636 -7.75295,35.63636 -1.75352,7.87927 -4.43229,21.59207 -10.15803,52 -1.35579,7.2 -3.29113,17.18182 -4.30088,22.18182 -1.00974,5 -3.36254,17.10909 -5.22843,26.90909 -7.36357,38.67454 -19.79593,100.23297 -22.836,113.07177 -2.26917,9.5829 -3.72742,16.5546 -3.5024,16.7443 0.11622,0.098 9.21134,0.4013 20.21134,0.6738 11,0.2726 25.4,0.793 32,1.1566 6.6,0.3635 16.74546,0.8807 22.54546,1.1494 5.8,0.2687 10.68181,0.6086 10.84851,0.7555 1.08807,0.9581 1.51105,-0.1999 1.16436,-3.1877 z M 689.10332,691.81816 c 1.37361,-10.20062 3.43222,-22.45718 4.82584,-28.7323 0.86676,-3.90275 1.44128,-7.23057 1.27672,-7.39514 -0.49953,-0.49952 -11.46243,-1.74219 -19.63738,-2.22595 l -7.70421,-0.4559 -0.46278,8.58646 c -0.25453,4.72256 -1.12165,13.49556 -1.92694,19.49556 -0.80529,6 -1.46651,11.47037 -1.46938,12.15638 -0.006,1.31179 -1.00602,1.21703 19.76841,1.87205 l 4.86452,0.15339 z M 319.6212,587.15366 c -1.83987,-1.83987 -1.00135,-4.25344 5.19698,-14.95865 18.66377,-32.23447 24.89791,-53.15738 26.82013,-90.01321 0.5216,-10.00093 -0.56146,-27.07718 -2.26022,-35.63636 -1.06053,-5.34343 -8.49487,-28.29922 -11.35243,-35.05407 -1.39988,-3.30911 -1.55324,-3.42466 -4.82665,-3.63636 -2.84211,-0.18382 -3.41694,-0.47228 -3.60738,-1.8103 -0.12941,-0.90924 0.45578,-2.27396 1.3649,-3.18308 1.39667,-1.39667 2.13647,-1.54364 6.04473,-1.20088 2.4493,0.21481 8.65731,1.55867 13.79557,2.98635 13.2672,3.68634 23.7009,5.09739 33.56679,4.53955 9.33342,-0.52774 14.89374,-1.52381 30.7258,-5.50422 21.33893,-5.3649 29.72603,-5.30892 47.43627,0.31662 5.41086,1.71873 12.57253,3.88399 15.91481,4.81171 7.66919,2.12873 10.20489,3.81312 4.83221,3.20988 -2,-0.22456 -7.41887,-0.72597 -12.04194,-1.11426 -4.62308,-0.38828 -12.37497,-1.52834 -17.22646,-2.53345 -14.19944,-2.94181 -18.33504,-2.64953 -41.27705,2.91716 -7.2,1.74702 -15.65095,3.52144 -18.7799,3.94315 -8.19488,1.10449 -21.64061,0.93923 -29.2201,-0.35913 -5.87188,-1.00585 -20.80002,-4.6559 -23.88757,-5.8407 -0.72498,-0.27821 0.41082,2.09571 2.86107,5.97989 7.78193,12.33604 10.34227,18.99112 13.11029,34.0776 2.05293,11.18901 1.86057,41.92899 -0.35271,56.36363 -3.5789,23.34093 -9.53733,41.17679 -20.2078,60.48959 -2.1378,3.86927 -3.88691,7.23122 -3.88691,7.47098 0,0.23976 2.86363,-1.80457 6.36363,-4.54296 13.1369,-10.27827 18.12733,-13.24786 22.21604,-13.21982 5.48161,0.0376 14.494,6.41854 24.26247,17.1783 3.03513,3.34315 5.96403,6.07845 6.50865,6.07845 0.98897,0 7.70368,-8.72437 19.21733,-24.96893 6.3324,-8.93435 8.91934,-11.13629 12.13517,-10.32916 1.00065,0.25114 6.81438,4.19043 12.91939,8.75397 6.10501,4.56353 14.33287,10.43358 18.28412,13.04455 10.96377,7.24478 10.687,6.98159 9.79873,9.31776 -1.787,4.69988 -7.10986,1.90857 -32.02525,-16.79403 -7.69411,-5.77554 -9.9856,-7.16161 -10.76725,-6.5129 -0.54614,0.45326 -3.49221,4.45092 -6.54683,8.8837 -7.80015,11.31934 -13.72288,19.17963 -17.16994,22.78686 -2.51417,2.631 -3.38741,3.09091 -5.86872,3.09091 -2.75264,0 -3.36307,-0.45586 -10.95613,-8.18182 -9.74,-9.91047 -14.04071,-13.50655 -17.628,-14.7398 -3.5669,-1.22625 -5.02733,-0.47161 -17.50401,9.04473 -13.26218,10.11546 -21.95385,16.05871 -23.48499,16.05871 -0.70778,0 -1.83136,-0.54448 -2.49684,-1.20996 z m 136.30804,-24.79004 c -1.47429,-3.8694 -6.35403,-24.70667 -7.88408,-33.66619 -2.57604,-15.08459 -3.32837,-27.20388 -2.34128,-37.71562 1.98116,-21.0978 8.3037,-42.21113 16.43348,-54.87756 3.42525,-5.33664 7.53017,-9.92244 8.88193,-9.92244 0.79482,0 0.85891,-0.32318 0.27901,-1.40674 -0.41407,-0.7737 -0.75286,-2.11781 -0.75286,-2.9869 0,-1.21325 0.29553,-1.46242 1.27273,-1.07307 0.7,0.2789 4.38182,1.51721 8.18182,2.75181 6.22767,2.02332 7.80569,2.24382 15.99999,2.23572 8.15776,-0.008 9.6508,-0.21784 14.54546,-2.04371 15.85783,-5.91554 24.42683,-16.27138 26.1795,-31.63858 1.60316,-14.05637 -3.82203,-30.0221 -13.99099,-41.17398 -4.78909,-5.25198 -11.13642,-9.97423 -15.63951,-11.63539 -6.53329,-2.41008 -7.34855,-4.2276 -3.86342,-8.61306 4.34068,-5.46204 4.39544,-14.5311 0.15371,-25.45492 -7.53942,-19.41642 -29.98981,-36.46663 -55.38459,-42.06246 -9.96731,-2.19633 -28.42575,-2.15946 -36.72743,0.0734 -12.22746,3.28871 -23.35394,10.427 -28.67655,18.39768 -5.4195,8.11576 -6.41827,15.46373 -3.39566,24.98197 3.10981,9.79286 1.15245,11.21636 -9.54781,6.94368 -10.2713,-4.10141 -17.51952,-5.38564 -27.792,-4.92415 -9.63587,0.43288 -16.9507,2.43158 -26.58797,7.26487 -7.80826,3.916 -11.2525,6.36637 -18.09287,12.87193 -13.18066,12.53555 -18.32032,26.01719 -14.46708,37.94805 1.53708,4.75928 6.97972,10.8166 9.71897,10.8166 4.17828,0 6.51555,4.22154 3.82623,6.91086 -0.93201,0.932 -1.95898,1.09171 -4.64473,0.72233 -4.49247,-0.61788 -7.78233,1.02804 -12.92626,6.467 -8.793,9.2973 -11.71094,22.61778 -7.44846,34.00242 4.96746,13.26755 17.00138,16.18959 32.02805,7.77694 5.91002,-3.30871 10.79577,-7.7381 17.11979,-15.52071 3.10143,-3.81676 5.77882,-6.7997 5.94976,-6.62876 1.17425,1.17424 -9.44806,17.37053 -14.90261,22.72265 -18.37675,18.03166 -40.9443,13.71358 -47.71693,-9.13018 -1.48955,-5.02418 -1.5026,-14.18 -0.0284,-19.94485 2.57917,-10.08601 9.97982,-20.13004 18.34981,-24.90401 0.12087,-0.0689 -1.08373,-2.14212 -2.6769,-4.60706 -1.84392,-2.8529 -3.31145,-6.30536 -4.03795,-9.49955 -1.39816,-6.14723 -1.40341,-7.72558 -0.0472,-14.18526 4.71691,-22.46656 31.70097,-44.91856 59.44712,-49.46277 10.15381,-1.66298 25.57378,-0.0774 34.16453,3.51304 l 2.38514,0.99685 v -9.19522 c 0,-9.1446 0.0148,-9.22506 2.69336,-14.61447 4.74116,-9.53962 12.48221,-16.69757 23.91664,-22.11511 8.43862,-3.99815 15.51219,-5.53533 27.63265,-6.00497 21.48078,-0.83233 39.39179,4.07397 56.22836,15.40243 16.03402,10.78847 26.43463,24.27985 30.24492,39.23292 2.174,8.53162 1.85696,15.42918 -1.02565,22.31367 -0.36445,0.87041 0.68835,1.84323 4.24725,3.92455 8.83486,5.16681 18.75504,16.62201 23.31108,26.91817 4.87911,11.02624 6.61671,24.45021 4.46826,34.51987 -3.71486,17.41138 -16.91214,30.18986 -35.75889,34.62412 -6.88676,1.62032 -20.57983,1.0897 -27.23071,-1.05522 -5.57121,-1.79672 -5.09091,-1.71939 -5.09091,-0.81971 0,0.39799 -1.59626,2.70456 -3.54724,5.1257 -9.65922,11.98699 -17.22355,35.2536 -18.91762,58.18743 -0.66472,8.99891 -0.50288,27.68264 0.32413,37.41781 0.47343,5.573 3.77865,29.55866 4.43465,32.18182 0.57683,2.30656 -0.35807,2.03966 -1.27375,-0.36364 z m 477.90339,-45.04868 c -3.42757,-1.7808 -5.81993,-5.53717 -5.88524,-9.24069 -0.0291,-1.64085 -0.11076,-7.2379 -0.18182,-12.4379 l -0.12923,-9.45455 -2.00459,-0.23056 c -1.10247,-0.12681 -6.33883,0.49543 -11.63636,1.38276 -18.70487,3.13308 -34.27287,1.95497 -39.19382,-2.96601 -3.66974,-3.66974 -2.75432,-7.99587 3.38648,-16.00437 7.3925,-9.64083 11.90785,-18.57326 10.8208,-21.40608 -0.2099,-0.54688 -3.7136,-2.24299 -7.78611,-3.76914 -15.43258,-5.78327 -29.46233,-18.15201 -27.85477,-24.55702 0.76168,-3.03483 3.05913,-3.9592 10.99564,-4.42403 15.11651,-0.88536 19.27273,-1.26179 19.27273,-1.74557 0,-0.27421 -2.06371,-4.58119 -4.58604,-9.57108 -7.15687,-14.15825 -12.16756,-30.95072 -11.04749,-37.02335 0.60655,-3.2883 2.85447,-5.72352 5.79207,-6.27461 3.07062,-0.57606 9.3848,1.61981 20.09317,6.98776 4.7493,2.38072 9.01425,4.32858 9.47781,4.32858 0.62502,0 0.67484,-1.73867 0.19302,-6.72727 -0.35738,-3.7 -0.64982,-11.14546 -0.64982,-16.54546 0,-8.22011 0.22728,-10.27606 1.39637,-12.63131 1.68102,-3.38677 4.96407,-5.54664 8.42181,-5.54068 4.68611,0.008 13.37171,5.02135 23.9464,13.82167 l 4.22022,3.51213 0.86386,-3.03545 c 3.78851,-13.3124 8.14843,-18.4324 13.70618,-16.09554 2.30087,0.96743 5.25796,5.52595 5.26873,8.12203 0,0.71593 1.42654,-1.18605 3.16349,-4.22662 11.3549,-19.87732 17.14043,-21.07753 22.1632,-4.59776 1.20981,3.96934 2.81185,9.34426 3.56021,11.94426 1.27193,4.41944 1.50866,4.74185 3.63513,4.95118 1.26298,0.12432 3.55666,-0.43013 5.15709,-1.24662 5.32225,-2.7152 17.40165,-7.26233 23.27825,-8.76274 11.5245,-2.94248 18.0903,-1.54378 19.8178,4.22172 0.7104,2.37145 0.5904,4.74418 -0.6919,13.67114 -0.8533,5.94093 -1.5496,12.48129 -1.5473,14.53415 l 0.01,3.73247 6.3637,1.96298 c 13.559,4.18251 29.6449,15.09733 31.1627,21.14499 0.6629,2.64098 -0.9656,5.91387 -3.8203,7.6782 -1.3675,0.84518 -5.4097,2.9595 -8.9827,4.69847 -4.797,2.33477 -6.6065,3.60141 -6.918,4.84259 -0.2454,0.9775 0.6262,5.02444 2.0828,9.67159 4.9989,15.94794 8.4351,37.89693 7.0736,45.18433 -1.2843,6.87458 -4.5469,7.45552 -20.2362,3.60312 -9.2951,-2.28235 -12.7815,-2.89445 -15.3326,-2.69191 -0.7966,0.0633 -0.8786,3.43502 -0.4576,18.80434 0.5667,20.68206 0.2059,23.69794 -3.2485,27.15234 -4.3276,4.32752 -11.6056,3.11331 -24.2323,-4.04274 -3.90003,-2.21028 -10.28185,-5.82491 -14.18185,-8.0325 -8.86225,-5.01648 -11.72749,-5.95603 -14.57113,-4.77814 -1.15556,0.47864 -4.67803,3.68608 -7.82778,7.12763 -9.41985,10.29255 -16.97549,14.912 -25.97978,15.88377 -2.86087,0.30876 -4.43018,0.0847 -6.33411,-0.9045 z m 14.25898,-8.5748 c 3.15672,-1.52532 6.36058,-4.19491 12.272,-10.22546 4.4,-4.48867 8.81818,-8.58648 9.81818,-9.10623 1.68909,-0.87789 1.30269,-1.03647 -5.44102,-2.23308 -33.24313,-5.89869 -61.2424,-31.55038 -66.93963,-61.32703 -4.24902,-22.20762 4.64421,-44.07079 23.67352,-58.19901 6.8264,-5.06826 18.00786,-10.23843 26.34095,-12.17979 6.61592,-1.54131 7.08851,-1.77161 7.09091,-3.45549 0,-0.99227 0.68872,-3.4597 1.52741,-5.48319 l 1.52488,-3.67905 -2.55309,-4.23828 -2.55309,-4.23828 -1.07731,2.0851 c -0.59244,1.1468 -2.08022,5.15383 -3.30604,8.9045 -3.75091,11.47648 -5.59047,12.08432 -14.36734,4.74733 -12.20291,-10.20096 -20.42139,-15.08146 -22.49637,-13.35936 -2.70473,2.24469 -3.10218,9.13626 -1.36058,23.58987 1.37702,11.42792 0.87789,14.57298 -2.64291,16.65277 -3.14996,1.86073 -5.33003,1.28531 -17.62036,-4.65088 -5.76517,-2.78457 -11.51506,-5.26943 -12.77738,-5.52191 -2.26015,-0.45203 -2.29528,-0.41587 -2.29528,2.36425 0,6.42238 5.11608,20.99152 11.94182,34.00686 7.33709,13.99042 5.61658,16.06861 -14.45294,17.45772 l -11.60197,0.80303 3.9496,3.88419 c 5.0192,4.93612 11.58175,8.82855 20.34531,12.06743 4.85244,1.79339 7.53149,3.24264 8.99986,4.86854 1.94116,2.14937 2.06247,2.62658 1.696,6.66879 -0.50422,5.56045 -3.80059,12.21147 -11.03724,22.26997 -4.07084,5.65811 -5.25636,7.81224 -4.68095,8.5055 2.448,2.94971 20.83411,3.10913 36.29506,0.31471 11.27462,-2.03779 14.07193,-1.51437 17.14553,3.20816 1.25694,1.93126 1.37927,3.32481 1.19752,13.64578 -0.24945,14.17083 -0.0618,14.6776 5.27382,14.23513 2.14342,-0.17775 5.72604,-1.23011 8.11113,-2.38259 z m 74.98539,-3.10379 c 0.9634,-3.44498 0.5914,-27.92548 -0.47,-30.92606 -0.4115,-1.16337 -0.7396,-1.08207 -3.3498,0.82996 -7.4778,5.47772 -20.55141,10.88591 -29.07541,12.02773 -2,0.2679 -4.58378,0.67476 -5.74182,0.90413 l -2.10538,0.41703 3.35571,1.70107 c 1.8456,0.93559 7.96552,4.37935 13.59978,7.6528 11.53352,6.70089 17.43412,9.35078 20.87782,9.37607 1.9496,0.0143 2.4451,-0.32336 2.9091,-1.98273 z m -25.25885,-26.98536 c 23.63895,-7.70806 41.01655,-28.97617 45.84235,-56.10555 1.2026,-6.76038 1.0273,-19.73763 -0.3558,-26.35002 -2.4177,-11.55858 -9.3955,-23.70774 -18.0375,-31.40585 -4.9432,-4.40328 -4.8249,-4.36798 -22.3581,-6.66732 -10.8892,-1.42802 -30.15997,-1.05249 -40.36367,0.78657 -20.35593,3.66884 -34.66895,10.47276 -44.81411,21.30315 -15.35411,16.39109 -18.44066,38.91219 -8.13528,59.36019 5.02706,9.9747 15.1379,21.4034 24.6419,27.85369 8.95869,6.08016 21.96829,11.50361 31.86574,13.2842 2.04298,0.36753 8.45993,0.56149 14.25993,0.43103 9.45025,-0.21258 11.26305,-0.47119 17.45454,-2.49009 z m -31.82531,-48.91291 c -11.51607,-5.70035 -10.4152,-26.10173 1.40851,-26.10173 1.37637,0 3.13767,0.4805 3.91418,1.06778 0.77644,0.58728 2.26262,1.07818 3.30262,1.09091 4.82226,0.059 10.83964,7.64154 10.83367,13.65157 -0.009,8.73834 -10.92887,14.5138 -19.45898,10.29147 z m 8.88102,-6.04016 c 3.41913,-1.42861 4.34095,-3.37656 3.05462,-6.45515 -0.86138,-2.06153 -4.4088,-5.51625 -7.50386,-7.30776 -1.27621,-0.7387 -4.40792,0.69867 -5.34756,2.45437 -1.75113,3.27212 1.34807,10.45099 5.10473,11.82426 1.70102,0.62181 2.06545,0.58175 4.69207,-0.51572 z m 84.76244,36.57722 c 0,-8.91702 -3.7206,-28.84113 -7.1814,-38.45697 -1.2666,-3.51933 -1.4459,-3.7289 -1.4927,-1.74394 -0.088,3.75491 -3.6527,16.78331 -6.3624,23.25635 -1.402,3.34927 -3.9733,8.30308 -5.7139,11.00847 l -3.1649,4.91889 10.6849,2.65298 c 5.8768,1.45915 11.2577,2.68974 11.9577,2.73467 1.0824,0.0694 1.2727,-0.58407 1.2727,-4.37045 z m 1.2997,-61.01594 c 6.9715,-3.20425 8.5185,-4.14037 8.5185,-5.15467 0,-1.54917 -9.8938,-8.53245 -16.9797,-11.98469 -3.7388,-1.82155 -6.9276,-3.18223 -7.0861,-3.02372 -0.1586,0.1585 0.6598,2.88562 1.8183,6.06025 1.9032,5.21493 2.7737,8.89603 4.0764,17.23914 l 0.4308,2.75916 2.1698,-1.82577 c 1.1934,-1.00416 4.3668,-2.83553 7.052,-4.0697 z m -27.1655,-46.71376 c 0.7062,-4.9 1.1694,-9.89091 1.0294,-11.0909 -0.2492,-2.13692 -0.3327,-2.1786 -4.0523,-2.0252 -2.0888,0.0861 -5.8524,0.68774 -8.3636,1.33688 -6.6462,1.71804 -16.0716,5.48183 -15.36,6.13364 0.3368,0.30843 1.9214,0.96768 3.5214,1.46499 5.0702,1.57592 13.7108,6.41262 17.4656,9.77656 1.9939,1.78637 3.8167,3.26261 4.0505,3.28054 0.2339,0.0179 1.0029,-3.97651 1.709,-8.87651 z m -20.316,3.39372 c -4.9074,-3.09319 -11.1571,-6.12099 -12.6343,-6.12099 -0.7717,0 -3.05827,0.76687 -5.08132,1.70416 l -3.67826,1.70416 7.42422,1.22157 c 4.08336,0.67187 9.06056,1.67573 11.06056,2.23082 5.3946,1.49722 6.1524,1.30454 2.9091,-0.73972 z m -26.89148,-4.86204 c -1.09127,-1.558 -1.5232,-2.88454 -5.9152,-18.16804 -1.4656,-5.1 -2.95134,-9.27273 -3.30167,-9.27273 -1.38451,0 -12.44494,19.50488 -14.72494,25.96709 l -1.07353,3.04254 13.03149,-0.0367 c 13.00204,-0.0366 13.02902,-0.04 11.98385,-1.53222 z M 683.81816,511.11081 c -1.88618,-0.90789 -2.18481,-3.56846 -0.55259,-4.92309 2.06482,-1.71364 14.63638,-3.34463 35.46084,-4.60056 2.29954,-0.13869 4.3471,-0.41828 4.55013,-0.62131 0.20303,-0.20304 -0.77926,-9.99432 -2.18287,-21.75842 -1.40361,-11.76409 -3.10667,-27.15257 -3.78459,-34.19661 l -1.23257,-12.80736 -7.60595,-0.46537 c -12.22316,-0.74788 -19.02211,-0.59194 -19.34598,0.44371 -0.35363,1.13082 -0.9524,19.00003 -1.58405,47.27273 -0.26586,11.9 -0.76215,21.63636 -1.10287,21.63636 -0.34073,0 -0.61972,-1.06363 -0.62,-2.36363 -2.8e-4,-1.3 -0.47019,-10.70909 -1.04426,-20.90909 -0.57407,-10.2 -1.26248,-24.76364 -1.5298,-32.36364 -0.26732,-7.6 -0.58062,-13.91958 -0.69623,-14.04352 -0.11561,-0.12394 -3.76334,-0.37973 -8.10607,-0.56843 -4.34272,-0.18869 -17.50926,-0.85898 -29.25896,-1.48953 -16.47627,-0.8842 -21.48565,-0.94818 -21.8988,-0.27969 -0.38632,0.62508 -0.65893,0.54558 -0.9777,-0.28512 -0.30067,-0.7835 -1.36595,-1.15189 -3.33102,-1.15189 -1.58895,0 -3.09126,-0.32727 -3.33848,-0.72727 -0.27517,-0.44524 0.86921,-0.72727 2.95099,-0.72727 3.18856,0 3.36956,-0.10198 2.9044,-1.63637 -0.27284,-0.9 -0.68233,-5.46049 -0.90997,-10.13443 l -0.4139,-8.49806 -2.81122,-0.47496 c -1.54616,-0.26122 -2.80897,-0.85527 -2.80624,-1.32011 0.007,-1.25658 4.61626,-4.16175 7.77589,-4.90147 4.31184,-1.00948 33.42977,-4.14864 47.12824,-5.08084 6.79999,-0.46274 12.73186,-0.94296 13.18191,-1.06716 0.90812,-0.2506 1.42526,-10.90481 2.18171,-44.94828 0.53365,-24.01648 0.14053,-22.71149 7.4604,-24.76533 9.78213,-2.74474 16.8706,-0.25898 20.34613,7.13489 3.17851,6.76199 5.26475,21.1367 6.77552,46.68487 l 0.87668,14.82543 27.67975,0.0752 c 16.63687,0.0452 26.66422,0.31881 25.13426,0.68588 -1.4,0.33589 -13.67273,1.31908 -27.27273,2.18486 -13.6,0.86578 -24.83221,1.67117 -24.96047,1.78974 -0.20391,0.18852 1.37451,29.66981 1.6007,29.8974 0.54676,0.55016 50.23955,1.50902 52.43119,1.01169 5.45251,-1.23725 6.15898,-4.28404 4.36865,-18.84029 -1.23098,-10.00823 -1.10844,-16.07717 0.32473,-16.07717 1.01476,0 4.14582,4.56482 4.98843,7.27273 2.22808,7.16008 3.01979,21.19096 1.4848,26.31418 -1.0232,3.41524 -4.63352,6.77795 -8.4,7.8239 -3.37847,0.93822 -13.10087,0.96828 -24.20167,0.0748 -4.6,-0.37023 -13.35454,-0.90169 -19.45454,-1.18103 l -11.09091,-0.50787 v 8.6999 c 0,9.33334 1.15796,42.08301 1.87891,53.13971 l 0.43865,6.72727 h 2.11393 c 1.16269,0 2.11396,0.2918 2.11396,0.64843 0,0.66621 -2.33735,1.43023 -6.18181,2.02066 -1.2,0.1843 -6.43637,1.33672 -11.63637,2.56093 -22.87008,5.38417 -25.60512,5.85511 -27.81818,4.7899 z m 31.57955,-88.32684 c -0.24164,-2.33119 -0.65106,-8.82035 -0.90981,-14.42035 -0.25877,-5.6 -0.67895,-10.40705 -0.93375,-10.68234 -0.43414,-0.46907 -12.20141,0.28886 -19.91781,1.2829 l -3.45454,0.44503 v 6.72911 c 0,3.70102 -0.21176,9.71242 -0.47058,13.35868 l -0.47058,6.62955 7.19785,0.20944 c 3.95882,0.1152 9.94302,0.31679 13.29821,0.44798 l 6.10035,0.23854 z m -32.27122,-9.51182 c 0.24295,-7.07049 0.29617,-13.00101 0.11825,-13.17892 -0.77475,-0.77475 -58.77848,4.95498 -59.63693,5.89106 -0.0996,0.10864 -0.007,4.68064 0.20723,10.16002 l 0.38835,9.96251 29.24068,0.0104 29.24068,0.0104 0.44174,-12.85543 z m 30.15056,-21.57954 c 0.38038,-0.38037 -1.16434,-23.01796 -2.43554,-35.69262 -1.74518,-17.40041 -4.14101,-25.29521 -7.96779,-26.25568 -1.87224,-0.4699 -10.23939,-0.095 -10.77412,0.4828 -0.16204,0.17508 -0.5331,14.36123 -0.82457,31.52476 l -0.52995,31.20644 11.13563,-0.5025 c 6.1246,-0.27637 11.25295,-0.61981 11.39634,-0.7632 z m 420.90475,61.06074 c -1.6,-0.60231 -2.9825,-1.10003 -3.0722,-1.10605 -0.09,-0.006 -0.6625,-0.97651 -1.2728,-2.15665 -1.5863,-3.06765 -1.3765,-6.5664 0.7293,-12.16088 1.6062,-4.26733 1.6982,-4.96393 0.7272,-5.50729 -1.6748,-0.93726 -1.3649,-3.99403 0.5248,-5.17674 3.2213,-2.01609 53.7581,-7.1229 56.795,-5.73921 2.925,1.33276 3.3612,4.45101 2.2269,15.92007 -1.1833,11.96448 -1.5203,13.71449 -2.8545,14.82176 -0.6765,0.56148 -6.2647,0.91575 -16.8623,1.06902 -8.7178,0.12609 -19.9414,0.43216 -24.9414,0.68016 -7.1748,0.35586 -9.7041,0.22008 -12,-0.64419 z m 41.8354,-6.93518 h 7.0548 l 0.4949,-5.63637 c 0.2723,-3.1 0.6867,-7.32904 0.9211,-9.39787 l 0.4261,-3.76151 -2.8207,0.31605 c -1.5514,0.17383 -9.6934,0.98528 -18.0934,1.80322 -16.4824,1.60494 -30.0891,3.25043 -30.5308,3.69211 -0.2916,0.29151 1.4452,9.98241 2.2348,12.47013 0.4554,1.43499 0.8411,1.45767 16.8621,0.99141 9.0179,-0.26244 19.5709,-0.47717 23.4511,-0.47717 z m 13.645,-42.72727 c -0.7691,-0.88296 -1.2592,-3.72271 -1.6005,-9.27273 -0.2705,-4.4 -0.687,-8.78001 -0.9254,-9.73335 l -0.4336,-1.73336 -8.4423,0.45883 c -4.6432,0.25237 -13.1877,0.63464 -18.9877,0.8495 -15.1786,0.56229 -19.5002,1.03521 -20.7339,2.26893 -1.4405,1.44045 -1.4913,7.52581 -0.063,7.52581 5.5694,0 30.1685,2.50099 36.4332,3.70415 10.4169,2.00062 10.5064,2.02962 8.9539,2.90127 -1.779,0.99885 -14.6528,2.81994 -17.4681,2.47099 -1.3172,-0.16326 -7.1404,-0.65057 -12.9404,-1.08292 -15.3596,-1.14493 -17.6922,-1.46517 -18.9663,-2.60376 -0.6315,-0.56435 -1.52,-1.02609 -1.9745,-1.02609 -2.6359,0 -2.9771,-9.78176 -0.5077,-14.55711 2.3965,-4.63433 5.3717,-5.47536 21.8122,-6.166 13.4117,-0.56341 23.1153,-1.0699 29.6578,-1.54802 7.0658,-0.51637 8.672,0.34022 9.9649,5.31437 0.5007,1.92621 1.0811,7.3538 1.2896,12.06129 0.3342,7.5398 0.2241,8.73067 -0.9246,10 -1.6072,1.77593 -2.7044,1.82047 -4.1436,0.1682 z"
       id="path210" />
  </g>
</svg>
