<?xml version="1.0" encoding="UTF-8" standalone="no"?>
<!-- Created with Inkscape (http://www.inkscape.org/) -->

<svg
   version="1.1"
   id="svg59"
   width="1431.8424"
   height="1077.2729"
   viewBox="0 0 1431.8424 1077.273"
   sodipodi:docname="think-cloud.png"
   xmlns:inkscape="http://www.inkscape.org/namespaces/inkscape"
   xmlns:sodipodi="http://sodipodi.sourceforge.net/DTD/sodipodi-0.dtd"
   xmlns="http://www.w3.org/2000/svg"
   xmlns:svg="http://www.w3.org/2000/svg">
  <defs
     id="defs63" />
  <sodipodi:namedview
     id="namedview61"
     pagecolor="#505050"
     bordercolor="#ffffff"
     borderopacity="1"
     inkscape:showpageshadow="0"
     inkscape:pageopacity="0"
     inkscape:pagecheckerboard="1"
     inkscape:deskcolor="#505050"
     showgrid="false" />
  <g
     inkscape:groupmode="layer"
     inkscape:label="Image"
     id="g65"
     transform="translate(-32.379451,-184.39901)">
    <path
       style="fill:#000000;stroke-width:0.727273"
       d="m 495.96915,1261.5744 c -0.18304,-0.1667 -5.24189,-0.518 -11.24189,-0.7805 -10.70803,-0.4686 -25.54202,-1.9691 -32.72727,-3.3104 -2,-0.3734 -6.58182,-1.2218 -10.18182,-1.8855 -3.6,-0.6636 -7.52727,-1.4831 -8.72727,-1.8209 -1.2,-0.3379 -4.30909,-1.1526 -6.90909,-1.8103 -34.3019,-8.678 -69.57768,-26.3937 -98.90909,-49.6727 -9.4049,-7.4643 -31.78367,-29.9692 -39.52584,-39.7487 -20.99619,-26.5212 -38.31681,-60.8216 -45.17172,-89.4545 -0.67034,-2.8 -1.49864,-6.2364 -1.84067,-7.6364 -0.77516,-3.1729 -2.63058,-15.678 -3.6222,-24.4129 -0.97853,-8.6195 -0.96048,-33.6202 0.0304,-42.05014 2.68229,-22.82044 6.81961,-39.35549 14.8421,-59.31723 1.83046,-4.55462 3.20997,-8.63542 3.06557,-9.06859 -0.18008,-0.54014 -4.92603,-0.72123 -15.11098,-0.5765 -20.15102,0.28625 -32.36411,-0.96888 -48.0345,-4.93666 -8.70336,-2.20378 -14.4477,-3.93171 -16.99577,-5.11258 -0.8,-0.37076 -3.0909,-1.20669 -5.0909,-1.85767 -6.06245,-1.97317 -22.83735,-10.60029 -30.92496,-15.90429 C 117.76953,888.36455 99.126608,869.62085 83.394485,846.4191 58.954025,810.37438 41.671161,767.34427 35.393733,726.90907 c -0.620986,-4 -1.552338,-10.05455 -2.069669,-13.45455 -1.25917,-8.27549 -1.259589,-41.97886 -6.19e-4,-49.81818 2.775309,-17.28122 4.271976,-23.80943 7.919939,-34.54545 3.739343,-11.00495 8.758448,-21.29831 14.977422,-30.71624 14.467796,-21.90982 29.970777,-35.66089 52.183064,-46.28614 10.53647,-5.04011 16.97424,-7.26439 28.52083,-9.85408 12.80833,-2.87267 19.46185,-3.46744 42.85135,-3.8305 17.95207,-0.27867 21.74589,-0.51795 22.49343,-1.41867 0.89654,-1.08027 0.47637,-6.89646 -1.5423,-21.34891 -1.30123,-9.31605 -1.6668,-23.52024 -0.80486,-31.27273 1.98833,-17.8835 8.20259,-37.83665 17.22388,-55.30352 12.76538,-24.71613 32.2975,-44.76604 54.53668,-55.9824 4.72662,-2.38388 12.63577,-5.17359 20.6212,-7.27349 5.85892,-1.54071 18.68461,-1.73871 25.87773,-0.39949 3.6,0.67024 7.52727,1.516 8.72727,1.87946 5.76402,1.74581 14.0522,4.57686 16.10991,5.50278 1.26045,0.56716 2.53524,1.03121 2.83286,1.03121 0.29762,0 3.46626,1.47524 7.04142,3.27831 3.57516,1.80306 6.7719,3.11044 7.10386,2.90528 0.33196,-0.20517 0.82833,-1.76222 1.10303,-3.46013 2.4588,-15.19752 9.52468,-33.69996 18.3956,-48.17 22.33753,-36.43643 56.5222,-62.14106 98.74399,-74.24898 17.32557,-4.96844 28.75358,-6.42943 46.12387,-5.89658 21.52281,0.66022 39.89524,5.52159 61.45454,16.26096 15.85142,7.89609 29.9048,18.55618 49.09091,37.23757 6.2,6.0369 11.62628,10.98213 12.05841,10.98942 1.14131,0.0193 5.52913,-4.26607 14.5075,-14.16857 25.60837,-28.24421 54.77951,-51.62271 89.26252,-71.53729 11.46829,-6.62315 30.21484,-15.35404 43.44429,-20.23349 23.45819,-8.65212 44.00415,-14.19135 66.90909,-18.03882 22.55884,-3.78933 30.05651,-4.37734 55.27273,-4.33479 28.96618,0.0489 48.75738,2.19453 74.54545,8.08181 62.68984,14.31178 116.54484,46.00101 153.19114,90.14042 10.8334,13.04849 18.6849,25.06825 26.4005,40.41591 7.4062,14.73232 14.171,33.23221 18.8812,51.63554 2.2239,8.68905 3.1581,13.18781 5.561,26.77979 0.7383,4.17553 1.7456,12.05024 2.884,22.54546 1.86,17.14673 2.7863,20.85205 5.3755,21.50187 0.86,0.21586 4.664,0.0332 8.4533,-0.40603 19.9194,-2.3086 30.0559,-2.46382 42.5261,-0.65119 47.6387,6.92463 91.5387,29.46907 131.5481,67.55534 6.6001,6.2828 16.9509,17.96586 23.8405,26.90909 5.52,7.16518 13.7023,19.10896 13.7023,20.00118 0,0.33636 0.4522,1.12824 1.005,1.75974 1.6695,1.90737 8.591,15.12087 12.9826,24.78454 8.7939,19.35072 15.6082,40.43529 20.2138,62.54545 2.8308,13.59 4.0621,21.42358 5.887,37.45454 1.1669,10.25057 1.1415,46.86502 -0.04,57.45455 -1.6721,14.98923 -4.1821,31.16654 -6.2061,40 -0.6416,2.8 -1.634,7.16145 -2.2054,9.69214 -7.7355,34.25709 -22.5301,66.79513 -42.3156,93.06604 -6.0344,8.01236 -7.9682,10.2093 -18.2237,20.70392 -21.8405,22.34946 -42.8124,34.76051 -73.2796,43.36626 -5.6,1.58181 -12.6364,3.42778 -15.6364,4.10218 -12.2119,2.74523 -16.6213,4.13563 -18.0971,5.70654 -1.7185,1.82931 -2.9975,7.6808 -4.7883,21.90837 -2.7659,21.97408 -7.3377,40.52348 -14.7881,59.99998 -21.4866,56.17 -56.6536,96.9073 -115.6919,134.0167 -29.0636,18.2684 -68.7501,35.7515 -101.1801,44.5729 -6.9997,1.904 -7.7276,2.0844 -17.4545,4.3258 -9.3471,2.1539 -24.9718,4.8066 -37.09091,6.2972 -10.10575,1.243 -46.69382,1.2629 -56.36364,0.031 -15.42509,-1.9654 -23.1576,-3.2413 -36.36363,-5.9997 -14.23935,-2.9744 -38.66116,-10.7907 -50.90909,-16.2938 -1.2,-0.5391 -3.98182,-1.7236 -6.18182,-2.6321 -7.09084,-2.9282 -26.98647,-13.3523 -37.45454,-19.6237 -9.14262,-5.4775 -30.72488,-19.7068 -56.51491,-37.2607 -15.77847,-10.7395 -21.83149,-12.9568 -28.46002,-10.4254 -4.34394,1.659 -9.1222,6.6265 -20.71714,21.5375 -21.56173,27.7283 -28.19174,35.152 -42.30793,47.3724 -5.60079,4.8486 -19.16238,15.1731 -19.93041,15.1731 -0.23643,0 -1.98516,1.0928 -3.88609,2.4284 -6.49764,4.5655 -22.85433,13.0135 -33.27441,17.1859 -3.2,1.2813 -6.47272,2.6162 -7.27272,2.9665 -4.53616,1.9862 -17.78604,6.0892 -26.76141,8.2871 -19.67269,4.8173 -35.09325,6.7498 -64.17852,8.0427 -5.21696,0.2319 -9.63514,0.2852 -9.81818,0.1184 z"
       id="path177" />
  </g>
</svg>
