{"asset":{"version":"2.0","generator":"Blockbench 4.1.3 glTF exporter"},"scenes":[{"nodes":[19],"name":"blockbench_export"}],"scene":0,"nodes":[{"translation":[-0.03125,0.21875,0],"name":"cube","mesh":0},{"translation":[0,-0.03125,0],"name":"cube","mesh":1},{"rotation":[0,0,-0.06540312923014306,0.9978589232386035],"translation":[-0.125,0.25,0],"name":"arm1","children":[1]},{"translation":[0,-0.03125,0],"name":"cube","mesh":2},{"rotation":[0,0,0.06540312923014306,0.9978589232386035],"translation":[0.125,0.25,0],"name":"arm2","children":[3]},{"translation":[-0.40500368903730943,-0.7853351287705517,1.3778799194432465],"name":"cube","mesh":3},{"rotation":[0,0,0.06540312923014306,0.9978589232386035],"translation":[0.0012463109626905666,0.40216487122944833,0.0028799194432465036],"name":"cube","mesh":4},{"rotation":[-0.19082141628892632,-0.17485561241569872,-0.2090646129348471,0.9430295273800401],"translation":[-0.13937868903730943,0.5115398712294483,0.018504919443246504],"name":"cube","mesh":5},{"translation":[0.078125,0,0],"name":"cube","mesh":6},{"translation":[-0.078125,0,0],"name":"cube","mesh":7},{"translation":[0.0012463109626905736,0.14435237122944833,-0.1221200805567535],"name":"eyes","children":[8,9]},{"translation":[-0.0012463109626905666,0.25408512877055167,-0.0028799194432465036],"name":"head","children":[5,6,7,10]},{"translation":[-0.00390625,0.203125,0],"name":"torso","children":[0,2,4,11]},{"name":"cube","mesh":8},{"translation":[0.0625,0,0],"name":"leg2","children":[13]},{"name":"cube","mesh":9},{"translation":[-0.0625,0,0],"name":"leg1","children":[15]},{"translation":[-0.00390625,0.203125,0],"name":"legs","children":[14,16]},{"translation":[0.00390625,0.015625,0],"name":"torbot","children":[12,17]},{"children":[18]}],"bufferViews":[{"buffer":0,"byteOffset":0,"byteLength":288,"target":34962,"byteStride":12},{"buffer":0,"byteOffset":288,"byteLength":288,"target":34962,"byteStride":12},{"buffer":0,"byteOffset":576,"byteLength":192,"target":34962,"byteStride":8},{"buffer":0,"byteOffset":768,"byteLength":72,"target":34963},{"buffer":0,"byteOffset":840,"byteLength":288,"target":34962,"byteStride":12},{"buffer":0,"byteOffset":1128,"byteLength":288,"target":34962,"byteStride":12},{"buffer":0,"byteOffset":1416,"byteLength":192,"target":34962,"byteStride":8},{"buffer":0,"byteOffset":1608,"byteLength":72,"target":34963},{"buffer":0,"byteOffset":1680,"byteLength":288,"target":34962,"byteStride":12},{"buffer":0,"byteOffset":1968,"byteLength":288,"target":34962,"byteStride":12},{"buffer":0,"byteOffset":2256,"byteLength":192,"target":34962,"byteStride":8},{"buffer":0,"byteOffset":2448,"byteLength":72,"target":34963},{"buffer":0,"byteOffset":2520,"byteLength":1440,"target":34962,"byteStride":12},{"buffer":0,"byteOffset":3960,"byteLength":1440,"target":34962,"byteStride":12},{"buffer":0,"byteOffset":5400,"byteLength":960,"target":34962,"byteStride":8},{"buffer":0,"byteOffset":6360,"byteLength":360,"target":34963},{"buffer":0,"byteOffset":6720,"byteLength":672,"target":34962,"byteStride":12},{"buffer":0,"byteOffset":7392,"byteLength":672,"target":34962,"byteStride":12},{"buffer":0,"byteOffset":8064,"byteLength":448,"target":34962,"byteStride":8},{"buffer":0,"byteOffset":8512,"byteLength":168,"target":34963},{"buffer":0,"byteOffset":8680,"byteLength":288,"target":34962,"byteStride":12},{"buffer":0,"byteOffset":8968,"byteLength":288,"target":34962,"byteStride":12},{"buffer":0,"byteOffset":9256,"byteLength":192,"target":34962,"byteStride":8},{"buffer":0,"byteOffset":9448,"byteLength":72,"target":34963},{"buffer":0,"byteOffset":9520,"byteLength":672,"target":34962,"byteStride":12},{"buffer":0,"byteOffset":10192,"byteLength":672,"target":34962,"byteStride":12},{"buffer":0,"byteOffset":10864,"byteLength":448,"target":34962,"byteStride":8},{"buffer":0,"byteOffset":11312,"byteLength":168,"target":34963},{"buffer":0,"byteOffset":11480,"byteLength":672,"target":34962,"byteStride":12},{"buffer":0,"byteOffset":12152,"byteLength":672,"target":34962,"byteStride":12},{"buffer":0,"byteOffset":12824,"byteLength":448,"target":34962,"byteStride":8},{"buffer":0,"byteOffset":13272,"byteLength":168,"target":34963},{"buffer":0,"byteOffset":13440,"byteLength":1248,"target":34962,"byteStride":12},{"buffer":0,"byteOffset":14688,"byteLength":1248,"target":34962,"byteStride":12},{"buffer":0,"byteOffset":15936,"byteLength":832,"target":34962,"byteStride":8},{"buffer":0,"byteOffset":16768,"byteLength":312,"target":34963},{"buffer":0,"byteOffset":17080,"byteLength":1248,"target":34962,"byteStride":12},{"buffer":0,"byteOffset":18328,"byteLength":1248,"target":34962,"byteStride":12},{"buffer":0,"byteOffset":19576,"byteLength":832,"target":34962,"byteStride":8},{"buffer":0,"byteOffset":20408,"byteLength":312,"target":34963},{"buffer":0,"byteOffset":20720,"byteLength":36},{"buffer":0,"byteOffset":20756,"byteLength":144},{"buffer":0,"byteOffset":20900,"byteLength":36},{"buffer":0,"byteOffset":20936,"byteLength":144},{"buffer":0,"byteOffset":21080,"byteLength":36},{"buffer":0,"byteOffset":21116,"byteLength":108},{"buffer":0,"byteOffset":21224,"byteLength":40},{"buffer":0,"byteOffset":21264,"byteLength":160},{"buffer":0,"byteOffset":21424,"byteLength":40},{"buffer":0,"byteOffset":21464,"byteLength":160},{"buffer":0,"byteOffset":21624,"byteLength":40},{"buffer":0,"byteOffset":21664,"byteLength":160},{"buffer":0,"byteOffset":21824,"byteLength":36},{"buffer":0,"byteOffset":21860,"byteLength":108},{"buffer":0,"byteOffset":21968,"byteLength":40},{"buffer":0,"byteOffset":22008,"byteLength":160},{"buffer":0,"byteOffset":22168,"byteLength":40},{"buffer":0,"byteOffset":22208,"byteLength":120}],"buffers":[{"byteLength":22328,"uri":"data:application/octet-stream;base64,"}],"accessors":[{"bufferView":0,"componentType":5126,"count":24,"max":[0.15625,0.03125,0.078125],"min":[-0.09375,-0.21875,-0.078125],"type":"VEC3"},{"bufferView":1,"componentType":5126,"count":24,"max":[0.9980525970458984,1,1],"min":[-0.9980525970458984,-1,-1],"type":"VEC3"},{"bufferView":2,"componentType":5126,"count":24,"max":[0.5,1],"min":[0,0.5],"type":"VEC2"},{"bufferView":3,"componentType":5123,"count":36,"max":[23],"min":[0],"type":"SCALAR"},{"bufferView":4,"componentType":5126,"count":24,"max":[0.015625,0.0625,0.015625],"min":[-0.015625,-0.25,-0.015625],"type":"VEC3"},{"bufferView":5,"componentType":5126,"count":24,"max":[1,1,1],"min":[-1,-1,-1],"type":"VEC3"},{"bufferView":6,"componentType":5126,"count":24,"max":[0.5,1],"min":[0,0.5],"type":"VEC2"},{"bufferView":7,"componentType":5123,"count":36,"max":[23],"min":[0],"type":"SCALAR"},{"bufferView":8,"componentType":5126,"count":24,"max":[0.015625,0.0625,0.015625],"min":[-0.015625,-0.25,-0.015625],"type":"VEC3"},{"bufferView":9,"componentType":5126,"count":24,"max":[1,1,1],"min":[-1,-1,-1],"type":"VEC3"},{"bufferView":10,"componentType":5126,"count":24,"max":[0.5,1],"min":[0,0.5],"type":"VEC2"},{"bufferView":11,"componentType":5123,"count":36,"max":[23],"min":[0],"type":"SCALAR"},{"bufferView":12,"componentType":5126,"count":120,"max":[0.6529687643051147,1.171875,-1.2421875],"min":[0.15953125059604645,0.78125,-1.5078125],"type":"VEC3"},{"bufferView":13,"componentType":5126,"count":120,"max":[0.9926354885101318,0.9965457320213318,1],"min":[-0.9933253526687622,-1,-1],"type":"VEC3"},{"bufferView":14,"componentType":5126,"count":120,"max":[0.5997123718261719,1],"min":[0,0.3743520975112915],"type":"VEC2"},{"bufferView":15,"componentType":5123,"count":180,"max":[119],"min":[0],"type":"SCALAR"},{"bufferView":16,"componentType":5126,"count":56,"max":[0.01171875,0.11983651667833328,0.01171875],"min":[-0.07370439171791077,-0.0390625,-0.01171875],"type":"VEC3"},{"bufferView":17,"componentType":5126,"count":56,"max":[0.999912679195404,0.9656671285629272,1],"min":[-1,-1,-1],"type":"VEC3"},{"bufferView":18,"componentType":5126,"count":56,"max":[0.53125,0.84375],"min":[0.15625,0.46875],"type":"VEC2"},{"bufferView":19,"componentType":5123,"count":84,"max":[55],"min":[0],"type":"SCALAR"},{"bufferView":20,"componentType":5126,"count":24,"max":[0.05859375,0.03125,0.01953125],"min":[-0.03515625,-0.0625,-0.07421875],"type":"VEC3"},{"bufferView":21,"componentType":5126,"count":24,"max":[1,1,1],"min":[-1,-1,-1],"type":"VEC3"},{"bufferView":22,"componentType":5126,"count":24,"max":[0.5,0.875],"min":[0.125,0.5],"type":"VEC2"},{"bufferView":23,"componentType":5123,"count":36,"max":[23],"min":[0],"type":"SCALAR"},{"bufferView":24,"componentType":5126,"count":56,"max":[0.03125,0.0703125,0.015625],"min":[-0.03125,-0.0703125,-0.015625],"type":"VEC3"},{"bufferView":25,"componentType":5126,"count":56,"max":[1,1,1],"min":[-1,-1,-1],"type":"VEC3"},{"bufferView":26,"componentType":5126,"count":56,"max":[0.5,0.875],"min":[0,0.4609375],"type":"VEC2"},{"bufferView":27,"componentType":5123,"count":84,"max":[55],"min":[0],"type":"SCALAR"},{"bufferView":28,"componentType":5126,"count":56,"max":[0.03125,0.0703125,0.015625],"min":[-0.03125,-0.0703125,-0.015625],"type":"VEC3"},{"bufferView":29,"componentType":5126,"count":56,"max":[1,1,1],"min":[-1,-1,-1],"type":"VEC3"},{"bufferView":30,"componentType":5126,"count":56,"max":[0.5,0.875],"min":[0,0.4609375],"type":"VEC2"},{"bufferView":31,"componentType":5123,"count":84,"max":[55],"min":[0],"type":"SCALAR"},{"bufferView":32,"componentType":5126,"count":104,"max":[0.01953125,0.015625,0.015625],"min":[-0.01953125,-0.203125,-0.0625],"type":"VEC3"},{"bufferView":33,"componentType":5126,"count":104,"max":[1,1,1],"min":[-1,-1,-1],"type":"VEC3"},{"bufferView":34,"componentType":5126,"count":104,"max":[0.5,1],"min":[0,0.5],"type":"VEC2"},{"bufferView":35,"componentType":5123,"count":156,"max":[103],"min":[0],"type":"SCALAR"},{"bufferView":36,"componentType":5126,"count":104,"max":[0.01953125,0.015625,0.015625],"min":[-0.01953125,-0.203125,-0.0625],"type":"VEC3"},{"bufferView":37,"componentType":5126,"count":104,"max":[1,1,1],"min":[-1,-1,-1],"type":"VEC3"},{"bufferView":38,"componentType":5126,"count":104,"max":[0.5,1],"min":[0,0.5],"type":"VEC2"},{"bufferView":39,"componentType":5123,"count":156,"max":[103],"min":[0],"type":"SCALAR"},{"bufferView":40,"componentType":5126,"count":9,"max":[0.699999988079071],"min":[0],"type":"SCALAR"},{"bufferView":41,"componentType":5126,"count":9,"max":[0.08715574443340302,0,0,0.9990482330322266],"min":[0.04361938685178757,0,0,0.9961947202682495],"type":"VEC4"},{"bufferView":42,"componentType":5126,"count":9,"max":[0.699999988079071],"min":[0],"type":"SCALAR"},{"bufferView":43,"componentType":5126,"count":9,"max":[-0.02181488461792469,0,0,0.9997619986534119],"min":[-0.04361938685178757,0,0,0.9990482330322266],"type":"VEC4"},{"bufferView":44,"componentType":5126,"count":9,"max":[0.699999988079071],"min":[0],"type":"SCALAR"},{"bufferView":45,"componentType":5126,"count":9,"max":[-0.00390625,0.203125,0],"min":[-0.00390625,0.1875,0],"type":"VEC3"},{"bufferView":46,"componentType":5126,"count":10,"max":[0.699999988079071],"min":[0],"type":"SCALAR"},{"bufferView":47,"componentType":5126,"count":10,"max":[0.10863377898931503,0.007120234426110983,-0.06501439213752747,0.997827410697937],"min":[-0.10863377898931503,-0.007120234426110983,-0.06540106236934662,0.991927981376648],"type":"VEC4"},{"bufferView":48,"componentType":5126,"count":10,"max":[0.699999988079071],"min":[0],"type":"SCALAR"},{"bufferView":49,"componentType":5126,"count":10,"max":[0.10863377898931503,0.007120234426110983,0.06540106236934662,0.997827410697937],"min":[-0.10863377898931503,-0.007120234426110983,0.06501439213752747,0.991927981376648],"type":"VEC4"},{"bufferView":50,"componentType":5126,"count":10,"max":[0.699999988079071],"min":[0],"type":"SCALAR"},{"bufferView":51,"componentType":5126,"count":10,"max":[0.19509032368659973,0,0,0.9996616244316101],"min":[-0.2164396196603775,0,0,0.9762960076332092],"type":"VEC4"},{"bufferView":52,"componentType":5126,"count":9,"max":[0.699999988079071],"min":[0],"type":"SCALAR"},{"bufferView":53,"componentType":5126,"count":9,"max":[0.0625,0.051249999552965164,0],"min":[0.0625,-0.018608782440423965,0],"type":"VEC3"},{"bufferView":54,"componentType":5126,"count":10,"max":[0.699999988079071],"min":[0],"type":"SCALAR"},{"bufferView":55,"componentType":5126,"count":10,"max":[0.19509032368659973,0,0,0.9999911785125732],"min":[-0.2164396196603775,0,0,0.9762960076332092],"type":"VEC4"},{"bufferView":56,"componentType":5126,"count":10,"max":[0.699999988079071],"min":[0],"type":"SCALAR"},{"bufferView":57,"componentType":5126,"count":10,"max":[-0.0625,0.051874998956918716,0],"min":[-0.0625,-0.015625,0],"type":"VEC3"}],"materials":[{"pbrMetallicRoughness":{"metallicFactor":0,"roughnessFactor":1,"baseColorTexture":{"index":0}},"alphaMode":"MASK","alphaCutoff":0.05,"doubleSided":true},{"pbrMetallicRoughness":{"metallicFactor":0,"roughnessFactor":1,"baseColorTexture":{"index":1}},"alphaMode":"MASK","alphaCutoff":0.05,"doubleSided":true}],"textures":[{"sampler":0,"source":0,"name":"body.png"},{"sampler":1,"source":1,"name":"head.png"}],"samplers":[{"magFilter":9728,"minFilter":9728,"wrapS":33071,"wrapT":33071},{"magFilter":9728,"minFilter":9728,"wrapS":33071,"wrapT":33071}],"images":[{"mimeType":"image/png","uri":"data:image/png;base64,"},{"mimeType":"image/png","uri":"data:image/png;base64,"}],"meshes":[{"primitives":[{"mode":4,"attributes":{"POSITION":0,"NORMAL":1,"TEXCOORD_0":2},"indices":3,"material":0}]},{"primitives":[{"mode":4,"attributes":{"POSITION":4,"NORMAL":5,"TEXCOORD_0":6},"indices":7,"material":0}]},{"primitives":[{"mode":4,"attributes":{"POSITION":8,"NORMAL":9,"TEXCOORD_0":10},"indices":11,"material":0}]},{"primitives":[{"mode":4,"attributes":{"POSITION":12,"NORMAL":13,"TEXCOORD_0":14},"indices":15,"material":1}]},{"primitives":[{"mode":4,"attributes":{"POSITION":16,"NORMAL":17,"TEXCOORD_0":18},"indices":19,"material":1}]},{"primitives":[{"mode":4,"attributes":{"POSITION":20,"NORMAL":21,"TEXCOORD_0":22},"indices":23,"material":1}]},{"primitives":[{"mode":4,"attributes":{"POSITION":24,"NORMAL":25,"TEXCOORD_0":26},"indices":27,"material":1}]},{"primitives":[{"mode":4,"attributes":{"POSITION":28,"NORMAL":29,"TEXCOORD_0":30},"indices":31,"material":1}]},{"primitives":[{"mode":4,"attributes":{"POSITION":32,"NORMAL":33,"TEXCOORD_0":34},"indices":35,"material":0}]},{"primitives":[{"mode":4,"attributes":{"POSITION":36,"NORMAL":37,"TEXCOORD_0":38},"indices":39,"material":0}]}],"animations":[{"name":"animation.model.walk","samplers":[{"input":40,"output":41,"interpolation":"LINEAR"},{"input":42,"output":43,"interpolation":"LINEAR"},{"input":44,"output":45,"interpolation":"LINEAR"},{"input":46,"output":47,"interpolation":"LINEAR"},{"input":48,"output":49,"interpolation":"LINEAR"},{"input":50,"output":51,"interpolation":"LINEAR"},{"input":52,"output":53,"interpolation":"LINEAR"},{"input":54,"output":55,"interpolation":"LINEAR"},{"input":56,"output":57,"interpolation":"LINEAR"}],"channels":[{"sampler":0,"target":{"node":11,"path":"rotation"}},{"sampler":1,"target":{"node":12,"path":"rotation"}},{"sampler":2,"target":{"node":12,"path":"translation"}},{"sampler":3,"target":{"node":2,"path":"rotation"}},{"sampler":4,"target":{"node":4,"path":"rotation"}},{"sampler":5,"target":{"node":14,"path":"rotation"}},{"sampler":6,"target":{"node":14,"path":"translation"}},{"sampler":7,"target":{"node":16,"path":"rotation"}},{"sampler":8,"target":{"node":16,"path":"translation"}}]}]}